999
dxfrw 0.5.10
0
SECTION
2
HEADER
9
$ACADVER
1
AC1021
9
$HANDSEED
5
20000
9
$DWGCODEPAGE
3
ANSI_1252
9
$INSBASE
10
0
20
0
30
0
9
$EXTMIN
10
-14
20
-10
30
0
9
$EXTMAX
10
71.125
20
54.0089186287
30
0
9
$LIMMIN
10
0
20
0
9
$LIMMAX
10
420
20
297
9
$ORTHOMODE
70
0
9
$LTSCALE
40
1
9
$TEXTSTYLE
7
STANDARD
9
$CLAYER
8
Grund
9
$DIMASZ
40
0.3
9
$DIMLFAC
40
1
9
$DIMSCALE
40
1
9
$DIMEXO
40
0.0625
9
$DIMEXE
40
0.125
9
$DIMTXT
40
0.4
9
$DIMTSZ
40
0
9
$DIMAUNIT
70
0
9
$DIMADEC
70
2
9
$DIMLUNIT
70
2
9
$DIMSTYLE
2
STANDARD
9
$DIMGAP
40
0.0625
9
$DIMTIH
70
0
9
$LUNITS
70
2
9
$LUPREC
70
4
9
$AUNITS
70
0
9
$AUPREC
70
2
9
$SPLINESEGS
70
8
9
$GRIDMODE
70
1
9
$SNAPSTYLE
70
0
9
$GRIDUNIT
10
0
20
0
9
$PINSBASE
10
0.0886262888603
20
0.0549940782983
30
0
9
$PLIMMIN
10
0
20
0
9
$PLIMMAX
10
0.42
20
0.297
9
$INSUNITS
70
6
9
$PSVPSCALE
40
0.00424940614549
0
ENDSEC
0
SECTION
2
CLASSES
0
ENDSEC
0
SECTION
2
TABLES
0
TABLE
2
VPORT
5
8
330
0
100
AcDbSymbolTable
70
1
0
VPORT
5
31
330
2
100
AcDbSymbolTableRecord
100
AcDbViewportTableRecord
2
*ACTIVE
70
0
10
0
20
0
11
1
21
1
12
60.3572470354
22
29.8297376967
13
0
23
0
14
10
24
10
15
10
25
10
16
0
26
0
36
1
17
0
27
0
37
0
40
81.1741010226
41
1.94985673352
42
50
43
0
44
0
50
0
51
0
71
0
72
100
73
1
74
3
75
0
76
1
77
0
78
0
281
0
65
1
110
0
120
0
130
0
111
1
121
0
131
0
112
0
122
1
132
0
79
0
146
0
348
10020
60
7
61
5
292
1
282
1
141
0
142
0
63
250
421
3358443
0
ENDTAB
0
TABLE
2
LTYPE
5
5
330
0
100
AcDbSymbolTable
70
4
0
LTYPE
5
14
330
5
100
AcDbSymbolTableRecord
100
AcDbLinetypeTableRecord
2
ByBlock
70
0
3

72
65
73
0
40
0
0
LTYPE
5
15
330
5
100
AcDbSymbolTableRecord
100
AcDbLinetypeTableRecord
2
ByLayer
70
0
3

72
65
73
0
40
0
0
LTYPE
5
16
330
5
100
AcDbSymbolTableRecord
100
AcDbLinetypeTableRecord
2
Continuous
70
0
3
Solid line
72
65
73
0
40
0
0
LTYPE
5
32
330
5
100
AcDbSymbolTableRecord
100
AcDbLinetypeTableRecord
2
DOT
70
0
3
Dot . . . . . . . . . . . . . . . . . . . . . .
72
65
73
2
40
6.35
49
0
74
0
49
-6.35
74
0
0
LTYPE
5
33
330
5
100
AcDbSymbolTableRecord
100
AcDbLinetypeTableRecord
2
DOT2
70
0
3
Dot (.5x) .....................................
72
65
73
2
40
3.175
49
0
74
0
49
-3.175
74
0
0
LTYPE
5
34
330
5
100
AcDbSymbolTableRecord
100
AcDbLinetypeTableRecord
2
DOTX2
70
0
3
Dot (2x) .  .  .  .  .  .  .  .  .  .  .  .  .
72
65
73
2
40
12.7
49
0
74
0
49
-12.7
74
0
0
LTYPE
5
35
330
5
100
AcDbSymbolTableRecord
100
AcDbLinetypeTableRecord
2
DASHED
70
0
3
Dot . . . . . . . . . . . . . . . . . . . . . .
72
65
73
2
40
19.05
49
12.7
74
0
49
-6.35
74
0
0
LTYPE
5
36
330
5
100
AcDbSymbolTableRecord
100
AcDbLinetypeTableRecord
2
DASHED2
70
0
3
Dashed (.5x) _ _ _ _ _ _ _ _ _ _ _ _ _ _ _ _ _
72
65
73
2
40
9.525
49
6.35
74
0
49
-3.175
74
0
0
LTYPE
5
37
330
5
100
AcDbSymbolTableRecord
100
AcDbLinetypeTableRecord
2
DASHEDX2
70
0
3
Dashed (2x) ____  ____  ____  ____  ____  ___
72
65
73
2
40
38.1
49
25.4
74
0
49
-12.7
74
0
0
LTYPE
5
38
330
5
100
AcDbSymbolTableRecord
100
AcDbLinetypeTableRecord
2
DASHDOT
70
0
3
Dash dot __ . __ . __ . __ . __ . __ . __ . __
72
65
73
4
40
25.4
49
12.7
74
0
49
-6.35
74
0
49
0
74
0
49
-6.35
74
0
0
LTYPE
5
39
330
5
100
AcDbSymbolTableRecord
100
AcDbLinetypeTableRecord
2
DASHDOT2
70
0
3
Dash dot (.5x) _._._._._._._._._._._._._._._.
72
65
73
4
40
12.7
49
6.35
74
0
49
-3.175
74
0
49
0
74
0
49
-3.175
74
0
0
LTYPE
5
3A
330
5
100
AcDbSymbolTableRecord
100
AcDbLinetypeTableRecord
2
DASHDOTX2
70
0
3
Dash dot (2x) ____  .  ____  .  ____  .  ___
72
65
73
4
40
50.8
49
25.4
74
0
49
-12.7
74
0
49
0
74
0
49
-12.7
74
0
0
LTYPE
5
3B
330
5
100
AcDbSymbolTableRecord
100
AcDbLinetypeTableRecord
2
DIVIDE
70
0
3
Divide ____ . . ____ . . ____ . . ____ . . ____
72
65
73
6
40
31.75
49
12.7
74
0
49
-6.35
74
0
49
0
74
0
49
-6.35
74
0
49
0
74
0
49
-6.35
74
0
0
LTYPE
5
3C
330
5
100
AcDbSymbolTableRecord
100
AcDbLinetypeTableRecord
2
DIVIDE2
70
0
3
Divide (.5x) __..__..__..__..__..__..__..__.._
72
65
73
6
40
15.875
49
6.35
74
0
49
-3.175
74
0
49
0
74
0
49
-3.175
74
0
49
0
74
0
49
-3.175
74
0
0
LTYPE
5
3D
330
5
100
AcDbSymbolTableRecord
100
AcDbLinetypeTableRecord
2
DIVIDEX2
70
0
3
Divide (2x) ________  .  .  ________  .  .  _
72
65
73
6
40
63.5
49
25.4
74
0
49
-12.7
74
0
49
0
74
0
49
-12.7
74
0
49
0
74
0
49
-12.7
74
0
0
LTYPE
5
3E
330
5
100
AcDbSymbolTableRecord
100
AcDbLinetypeTableRecord
2
BORDER
70
0
3
Border __ __ . __ __ . __ __ . __ __ . __ __ .
72
65
73
6
40
44.45
49
12.7
74
0
49
-6.35
74
0
49
12.7
74
0
49
-6.35
74
0
49
0
74
0
49
-6.35
74
0
0
LTYPE
5
3F
330
5
100
AcDbSymbolTableRecord
100
AcDbLinetypeTableRecord
2
BORDER2
70
0
3
Border (.5x) __.__.__.__.__.__.__.__.__.__.__.
72
65
73
6
40
22.225
49
6.35
74
0
49
-3.175
74
0
49
6.35
74
0
49
-3.175
74
0
49
0
74
0
49
-3.175
74
0
0
LTYPE
5
40
330
5
100
AcDbSymbolTableRecord
100
AcDbLinetypeTableRecord
2
BORDERX2
70
0
3
Border (2x) ____  ____  .  ____  ____  .  ___
72
65
73
6
40
88.9
49
25.4
74
0
49
-12.7
74
0
49
25.4
74
0
49
-12.7
74
0
49
0
74
0
49
-12.7
74
0
0
LTYPE
5
41
330
5
100
AcDbSymbolTableRecord
100
AcDbLinetypeTableRecord
2
CENTER
70
0
3
Center ____ _ ____ _ ____ _ ____ _ ____ _ ____
72
65
73
4
40
50.8
49
31.75
74
0
49
-6.35
74
0
49
6.35
74
0
49
-6.35
74
0
0
LTYPE
5
42
330
5
100
AcDbSymbolTableRecord
100
AcDbLinetypeTableRecord
2
CENTER2
70
0
3
Center (.5x) ___ _ ___ _ ___ _ ___ _ ___ _ ___
72
65
73
4
40
28.575
49
19.05
74
0
49
-3.175
74
0
49
3.175
74
0
49
-3.175
74
0
0
LTYPE
5
43
330
5
100
AcDbSymbolTableRecord
100
AcDbLinetypeTableRecord
2
CENTERX2
70
0
3
Center (2x) ________  __  ________  __  _____
72
65
73
4
40
101.6
49
63.5
74
0
49
-12.7
74
0
49
12.7
74
0
49
-12.7
74
0
0
ENDTAB
0
TABLE
2
LAYER
5
2
330
0
100
AcDbSymbolTable
70
1
0
LAYER
5
10
330
2
100
AcDbSymbolTableRecord
100
AcDbLayerTableRecord
2
0
70
5
62
7
6
CONTINUOUS
370
0
390
F
0
LAYER
5
44
330
2
100
AcDbSymbolTableRecord
100
AcDbLayerTableRecord
2
Grund
70
0
62
1
6
CONTINUOUS
370
0
390
F
0
LAYER
5
45
330
2
100
AcDbSymbolTableRecord
100
AcDbLayerTableRecord
2
Grund Böschung
70
4
62
1
6
BORDER
370
0
390
F
0
LAYER
5
46
330
2
100
AcDbSymbolTableRecord
100
AcDbLayerTableRecord
2
Baumbereich
70
4
62
136
420
32896
6
CONTINUOUS
290
0
370
0
390
F
0
LAYER
5
47
330
2
100
AcDbSymbolTableRecord
100
AcDbLayerTableRecord
2
Beet/Feld
70
4
62
96
420
32768
6
CONTINUOUS
370
0
390
F
0
LAYER
5
48
330
2
100
AcDbSymbolTableRecord
100
AcDbLayerTableRecord
2
Parzellen
70
4
62
3
6
CONTINUOUS
370
0
390
F
0
LAYER
5
49
330
2
100
AcDbSymbolTableRecord
100
AcDbLayerTableRecord
2
Gemeinschaft
70
4
62
6
6
CONTINUOUS
370
0
390
F
0
LAYER
5
4A
330
2
100
AcDbSymbolTableRecord
100
AcDbLayerTableRecord
2
Maße
70
4
62
253
420
10526884
6
CONTINUOUS
370
0
390
F
0
LAYER
5
4B
330
2
100
AcDbSymbolTableRecord
100
AcDbLayerTableRecord
2
Sträucher
70
4
62
5
6
CONTINUOUS
370
0
390
F
0
ENDTAB
0
TABLE
2
STYLE
5
3
330
0
100
AcDbSymbolTable
70
3
0
STYLE
5
4C
330
2
100
AcDbSymbolTableRecord
100
AcDbTextStyleTableRecord
2
standard
70
0
40
0
41
1
50
0
71
0
42
1
3
standard
4

0
ENDTAB
0
TABLE
2
VIEW
5
6
330
0
100
AcDbSymbolTable
70
0
0
ENDTAB
0
TABLE
2
UCS
5
7
330
0
100
AcDbSymbolTable
70
0
0
ENDTAB
0
TABLE
2
APPID
5
9
330
0
100
AcDbSymbolTable
70
1
0
APPID
5
12
330
9
100
AcDbSymbolTableRecord
100
AcDbRegAppTableRecord
2
ACAD
70
0
0
ENDTAB
0
TABLE
2
DIMSTYLE
5
A
330
0
100
AcDbSymbolTable
70
1
100
AcDbDimStyleTable
71
1
0
DIMSTYLE
105
4D
330
A
100
AcDbSymbolTableRecord
100
AcDbDimStyleTableRecord
2
Standard
70
0
40
1
41
0.3
42
0.0625
43
0.38
44
0.125
45
0
46
0
47
0
48
0
140
0.4
141
0.09
142
0
143
25.4
144
1
145
0
146
1
147
0.0625
148
0
71
0
72
0
73
0
74
1
75
0
76
0
77
0
78
0
79
0
170
0
171
2
172
0
173
0
174
0
175
0
176
0
177
0
178
0
179
0
271
4
272
4
273
2
274
2
275
0
276
0
277
2
278
46
279
0
280
0
281
0
282
0
283
1
284
0
285
0
286
0
288
0
289
3
340
Standard
341

371
-2
372
-2
0
ENDTAB
0
TABLE
2
BLOCK_RECORD
5
1
330
0
100
AcDbSymbolTable
70
2
0
BLOCK_RECORD
5
1F
330
1
100
AcDbSymbolTableRecord
100
AcDbBlockTableRecord
2
*Model_Space
70
0
280
1
281
0
0
BLOCK_RECORD
5
1E
330
1
100
AcDbSymbolTableRecord
100
AcDbBlockTableRecord
2
*Paper_Space
70
0
280
1
281
0
0
BLOCK_RECORD
5
4E
330
1
100
AcDbSymbolTableRecord
100
AcDbBlockTableRecord
2
*D17
70
0
280
1
281
0
0
BLOCK_RECORD
5
51
330
1
100
AcDbSymbolTableRecord
100
AcDbBlockTableRecord
2
*D3
70
0
280
1
281
0
0
BLOCK_RECORD
5
54
330
1
100
AcDbSymbolTableRecord
100
AcDbBlockTableRecord
2
*D18
70
0
280
1
281
0
0
BLOCK_RECORD
5
57
330
1
100
AcDbSymbolTableRecord
100
AcDbBlockTableRecord
2
*D13
70
0
280
1
281
0
0
BLOCK_RECORD
5
5A
330
1
100
AcDbSymbolTableRecord
100
AcDbBlockTableRecord
2
*D21
70
0
280
1
281
0
0
BLOCK_RECORD
5
5D
330
1
100
AcDbSymbolTableRecord
100
AcDbBlockTableRecord
2
*D20
70
0
280
1
281
0
0
BLOCK_RECORD
5
60
330
1
100
AcDbSymbolTableRecord
100
AcDbBlockTableRecord
2
*D29
70
0
280
1
281
0
0
BLOCK_RECORD
5
63
330
1
100
AcDbSymbolTableRecord
100
AcDbBlockTableRecord
2
*D12
70
0
280
1
281
0
0
BLOCK_RECORD
5
66
330
1
100
AcDbSymbolTableRecord
100
AcDbBlockTableRecord
2
*D11
70
0
280
1
281
0
0
BLOCK_RECORD
5
69
330
1
100
AcDbSymbolTableRecord
100
AcDbBlockTableRecord
2
*D15
70
0
280
1
281
0
0
BLOCK_RECORD
5
6C
330
1
100
AcDbSymbolTableRecord
100
AcDbBlockTableRecord
2
*D8
70
0
280
1
281
0
0
BLOCK_RECORD
5
6F
330
1
100
AcDbSymbolTableRecord
100
AcDbBlockTableRecord
2
*D9
70
0
280
1
281
0
0
BLOCK_RECORD
5
72
330
1
100
AcDbSymbolTableRecord
100
AcDbBlockTableRecord
2
*D24
70
0
280
1
281
0
0
BLOCK_RECORD
5
75
330
1
100
AcDbSymbolTableRecord
100
AcDbBlockTableRecord
2
*D6
70
0
280
1
281
0
0
BLOCK_RECORD
5
78
330
1
100
AcDbSymbolTableRecord
100
AcDbBlockTableRecord
2
*D14
70
0
280
1
281
0
0
BLOCK_RECORD
5
7B
330
1
100
AcDbSymbolTableRecord
100
AcDbBlockTableRecord
2
*D19
70
0
280
1
281
0
0
BLOCK_RECORD
5
7E
330
1
100
AcDbSymbolTableRecord
100
AcDbBlockTableRecord
2
*D16
70
0
280
1
281
0
0
BLOCK_RECORD
5
81
330
1
100
AcDbSymbolTableRecord
100
AcDbBlockTableRecord
2
*D25
70
0
280
1
281
0
0
BLOCK_RECORD
5
84
330
1
100
AcDbSymbolTableRecord
100
AcDbBlockTableRecord
2
*D27
70
0
280
1
281
0
0
BLOCK_RECORD
5
87
330
1
100
AcDbSymbolTableRecord
100
AcDbBlockTableRecord
2
*D2
70
0
280
1
281
0
0
BLOCK_RECORD
5
8A
330
1
100
AcDbSymbolTableRecord
100
AcDbBlockTableRecord
2
*D5
70
0
280
1
281
0
0
BLOCK_RECORD
5
8D
330
1
100
AcDbSymbolTableRecord
100
AcDbBlockTableRecord
2
*D10
70
0
280
1
281
0
0
BLOCK_RECORD
5
90
330
1
100
AcDbSymbolTableRecord
100
AcDbBlockTableRecord
2
*D7
70
0
280
1
281
0
0
BLOCK_RECORD
5
93
330
1
100
AcDbSymbolTableRecord
100
AcDbBlockTableRecord
2
*D26
70
0
280
1
281
0
0
BLOCK_RECORD
5
96
330
1
100
AcDbSymbolTableRecord
100
AcDbBlockTableRecord
2
*D32
70
0
280
1
281
0
0
BLOCK_RECORD
5
99
330
1
100
AcDbSymbolTableRecord
100
AcDbBlockTableRecord
2
*D30
70
0
280
1
281
0
0
BLOCK_RECORD
5
9C
330
1
100
AcDbSymbolTableRecord
100
AcDbBlockTableRecord
2
*D33
70
0
280
1
281
0
0
BLOCK_RECORD
5
9F
330
1
100
AcDbSymbolTableRecord
100
AcDbBlockTableRecord
2
*D4
70
0
280
1
281
0
0
BLOCK_RECORD
5
A2
330
1
100
AcDbSymbolTableRecord
100
AcDbBlockTableRecord
2
*D22
70
0
280
1
281
0
0
BLOCK_RECORD
5
A5
330
1
100
AcDbSymbolTableRecord
100
AcDbBlockTableRecord
2
*D28
70
0
280
1
281
0
0
BLOCK_RECORD
5
A8
330
1
100
AcDbSymbolTableRecord
100
AcDbBlockTableRecord
2
*D1
70
0
280
1
281
0
0
BLOCK_RECORD
5
AB
330
1
100
AcDbSymbolTableRecord
100
AcDbBlockTableRecord
2
*D31
70
0
280
1
281
0
0
BLOCK_RECORD
5
AE
330
1
100
AcDbSymbolTableRecord
100
AcDbBlockTableRecord
2
*D23
70
0
280
1
281
0
0
ENDTAB
0
ENDSEC
0
SECTION
2
BLOCKS
0
BLOCK
5
20
330
1F
100
AcDbEntity
8
0
100
AcDbBlockBegin
2
*Model_Space
70
0
10
0
20
0
30
0
3
*Model_Space
1

0
ENDBLK
5
21
330
1F
100
AcDbEntity
8
0
100
AcDbBlockEnd
0
BLOCK
5
1C
330
1B
100
AcDbEntity
8
0
100
AcDbBlockBegin
2
*Paper_Space
70
0
10
0
20
0
30
0
3
*Paper_Space
1

0
ENDBLK
5
1D
330
1F
100
AcDbEntity
8
0
100
AcDbBlockEnd
0
BLOCK
5
4F
330
4E
100
AcDbEntity
8
0
100
AcDbBlockBegin
2
*D17
70
1
10
0
20
0
3
*D17
1

0
LINE
5
B1
100
AcDbEntity
8
Maße
6
CONTINUOUS
62
7
370
0
100
AcDbLine
10
69
20
18.5
11
69
21
26.5
0
SOLID
5
B2
100
AcDbEntity
8
Maße
6
CONTINUOUS
62
7
370
0
100
AcDbTrace
10
69
20
18.5
30
0
11
68.9500458411
21
18.8
31
0
12
69.0499541589
22
18.8
32
0
13
69.0499541589
23
18.8
33
0
0
SOLID
5
B3
100
AcDbEntity
8
Maße
6
CONTINUOUS
62
7
370
0
100
AcDbTrace
10
69
20
26.5
30
0
11
69.0499541589
21
26.2
31
0
12
68.9500458411
22
26.2
32
0
13
68.9500458411
23
26.2
33
0
0
MTEXT
5
B4
100
AcDbEntity
8
Maße
6
CONTINUOUS
62
7
370
0
100
AcDbMText
10
68.7375
20
22.5
30
0
40
0.4
41
0.177777777778
71
5
72
1
1
8
7
standard
210
0
220
0
230
1
50
90
73
2
44
1
0
LINE
5
B5
100
AcDbEntity
8
Maße
6
CONTINUOUS
62
7
370
0
100
AcDbLine
10
68.0625
20
18.5
11
69.125
21
18.5
0
LINE
5
B6
100
AcDbEntity
8
Maße
6
CONTINUOUS
62
7
370
0
100
AcDbLine
10
68.0625
20
26.5
11
69.125
21
26.5
0
ENDBLK
5
50
330
4E
100
AcDbEntity
8
0
100
AcDbBlockEnd
0
BLOCK
5
52
330
51
100
AcDbEntity
8
0
100
AcDbBlockBegin
2
*D3
70
1
10
0
20
0
3
*D3
1

0
LINE
5
B7
100
AcDbEntity
8
Maße
6
CONTINUOUS
62
7
370
0
100
AcDbLine
10
6
20
41
11
68
21
41
0
SOLID
5
B8
100
AcDbEntity
8
Maße
6
CONTINUOUS
62
7
370
0
100
AcDbTrace
10
6
20
41
30
0
11
6.3
21
41.0499541589
31
0
12
6.3
22
40.9500458411
32
0
13
6.3
23
40.9500458411
33
0
0
SOLID
5
B9
100
AcDbEntity
8
Maße
6
CONTINUOUS
62
7
370
0
100
AcDbTrace
10
68
20
41
30
0
11
67.7
21
40.9500458411
31
0
12
67.7
22
41.0499541589
32
0
13
67.7
23
41.0499541589
33
0
0
MTEXT
5
BA
100
AcDbEntity
8
Maße
6
CONTINUOUS
62
7
370
0
100
AcDbMText
10
37
20
41.2625
30
0
40
0.4
41
0.488888888889
71
5
72
1
1
62
7
standard
210
0
220
0
230
1
50
0
73
2
44
1
0
LINE
5
BB
100
AcDbEntity
8
Maße
6
CONTINUOUS
62
7
370
0
100
AcDbLine
10
6
20
40.0625
11
6
21
41.125
0
LINE
5
BC
100
AcDbEntity
8
Maße
6
CONTINUOUS
62
7
370
0
100
AcDbLine
10
68
20
40.0625
11
68
21
41.125
0
ENDBLK
5
53
330
51
100
AcDbEntity
8
0
100
AcDbBlockEnd
0
BLOCK
5
55
330
54
100
AcDbEntity
8
0
100
AcDbBlockBegin
2
*D18
70
1
10
0
20
0
3
*D18
1

0
LINE
5
BD
100
AcDbEntity
8
Maße
6
CONTINUOUS
62
7
370
0
100
AcDbLine
10
69
20
37.5
11
69
21
38.5
0
SOLID
5
BE
100
AcDbEntity
8
Maße
6
CONTINUOUS
62
7
370
0
100
AcDbTrace
10
69
20
37.5
30
0
11
68.9500458411
21
37.8
31
0
12
69.0499541589
22
37.8
32
0
13
69.0499541589
23
37.8
33
0
0
SOLID
5
BF
100
AcDbEntity
8
Maße
6
CONTINUOUS
62
7
370
0
100
AcDbTrace
10
69
20
38.5
30
0
11
69.0499541589
21
38.2
31
0
12
68.9500458411
22
38.2
32
0
13
68.9500458411
23
38.2
33
0
0
MTEXT
5
C0
100
AcDbEntity
8
Maße
6
CONTINUOUS
62
7
370
0
100
AcDbMText
10
68.7375
20
38
30
0
40
0.4
41
0.0888888888889
71
5
72
1
1
1
7
standard
210
0
220
0
230
1
50
90
73
2
44
1
0
LINE
5
C1
100
AcDbEntity
8
Maße
6
CONTINUOUS
62
7
370
0
100
AcDbLine
10
68.0625
20
37.5
11
69.125
21
37.5
0
LINE
5
C2
100
AcDbEntity
8
Maße
6
CONTINUOUS
62
7
370
0
100
AcDbLine
10
68.0625
20
38.5
11
69.125
21
38.5
0
ENDBLK
5
56
330
54
100
AcDbEntity
8
0
100
AcDbBlockEnd
0
BLOCK
5
58
330
57
100
AcDbEntity
8
0
100
AcDbBlockBegin
2
*D13
70
1
10
0
20
0
3
*D13
1

0
LINE
5
C3
100
AcDbEntity
8
Maße
6
CONTINUOUS
62
7
370
0
100
AcDbLine
10
69
20
-3.5
11
69
21
-2.5
0
SOLID
5
C4
100
AcDbEntity
8
Maße
6
CONTINUOUS
62
7
370
0
100
AcDbTrace
10
69
20
-3.5
30
0
11
68.9500458411
21
-3.2
31
0
12
69.0499541589
22
-3.2
32
0
13
69.0499541589
23
-3.2
33
0
0
SOLID
5
C5
100
AcDbEntity
8
Maße
6
CONTINUOUS
62
7
370
0
100
AcDbTrace
10
69
20
-2.5
30
0
11
69.0499541589
21
-2.8
31
0
12
68.9500458411
22
-2.8
32
0
13
68.9500458411
23
-2.8
33
0
0
MTEXT
5
C6
100
AcDbEntity
8
Maße
6
CONTINUOUS
62
7
370
0
100
AcDbMText
10
68.7375
20
-3
30
0
40
0.4
41
0.0888888888889
71
5
72
1
1
1
7
standard
210
0
220
0
230
1
50
90
73
2
44
1
0
LINE
5
C7
100
AcDbEntity
8
Maße
6
CONTINUOUS
62
7
370
0
100
AcDbLine
10
68.0625
20
-3.5
11
69.125
21
-3.5
0
LINE
5
C8
100
AcDbEntity
8
Maße
6
CONTINUOUS
62
7
370
0
100
AcDbLine
10
68.0625
20
-2.5
11
69.125
21
-2.5
0
ENDBLK
5
59
330
57
100
AcDbEntity
8
0
100
AcDbBlockEnd
0
BLOCK
5
5B
330
5A
100
AcDbEntity
8
0
100
AcDbBlockBegin
2
*D21
70
1
10
0
20
0
3
*D21
1

0
LINE
5
C9
100
AcDbEntity
8
Maße
6
CONTINUOUS
62
7
370
0
100
AcDbLine
10
68.6
20
-5
11
66.9
21
-5
0
SOLID
5
CA
100
AcDbEntity
8
Maße
6
CONTINUOUS
62
7
370
0
100
AcDbTrace
10
68
20
-5
30
0
11
68.3
21
-4.95004584107
31
0
12
68.3
22
-5.04995415893
32
0
13
68.3
23
-5.04995415893
33
0
0
SOLID
5
CB
100
AcDbEntity
8
Maße
6
CONTINUOUS
62
7
370
0
100
AcDbTrace
10
67.5
20
-5
30
0
11
67.2
21
-5.04995415893
31
0
12
67.2
22
-4.95004584107
32
0
13
67.2
23
-4.95004584107
33
0
0
MTEXT
5
CC
100
AcDbEntity
8
Maße
6
CONTINUOUS
62
7
370
0
100
AcDbMText
10
68.3736111111
20
-4.7375
30
0
40
0.4
41
0.622222222222
71
5
72
1
1
0.5
7
standard
210
0
220
0
230
1
50
360
73
2
44
1
0
LINE
5
CD
100
AcDbEntity
8
Maße
6
CONTINUOUS
62
7
370
0
100
AcDbLine
10
68
20
-4.0625
11
68
21
-5.125
0
LINE
5
CE
100
AcDbEntity
8
Maße
6
CONTINUOUS
62
7
370
0
100
AcDbLine
10
67.5
20
-4.0625
11
67.5
21
-5.125
0
ENDBLK
5
5C
330
5A
100
AcDbEntity
8
0
100
AcDbBlockEnd
0
BLOCK
5
5E
330
5D
100
AcDbEntity
8
0
100
AcDbBlockBegin
2
*D20
70
1
10
0
20
0
3
*D20
1

0
LINE
5
CF
100
AcDbEntity
8
Maße
6
CONTINUOUS
62
7
370
0
100
AcDbLine
10
68
20
-6
11
65.5
21
-6
0
SOLID
5
D0
100
AcDbEntity
8
Maße
6
CONTINUOUS
62
7
370
0
100
AcDbTrace
10
68
20
-6
30
0
11
67.7
21
-6.04995415893
31
0
12
67.7
22
-5.95004584107
32
0
13
67.7
23
-5.95004584107
33
0
0
SOLID
5
D1
100
AcDbEntity
8
Maße
6
CONTINUOUS
62
7
370
0
100
AcDbTrace
10
65.5
20
-6
30
0
11
65.8
21
-5.95004584107
31
0
12
65.8
22
-6.04995415893
32
0
13
65.8
23
-6.04995415893
33
0
0
MTEXT
5
D2
100
AcDbEntity
8
Maße
6
CONTINUOUS
62
7
370
0
100
AcDbMText
10
66.75
20
-5.7375
30
0
40
0.4
41
0.622222222222
71
5
72
1
1
2.5
7
standard
210
0
220
0
230
1
50
360
73
2
44
1
0
LINE
5
D3
100
AcDbEntity
8
Maße
6
CONTINUOUS
62
7
370
0
100
AcDbLine
10
68
20
-4.0625
11
68
21
-6.125
0
LINE
5
D4
100
AcDbEntity
8
Maße
6
CONTINUOUS
62
7
370
0
100
AcDbLine
10
65.5
20
-4.0625
11
65.5
21
-6.125
0
ENDBLK
5
5F
330
5D
100
AcDbEntity
8
0
100
AcDbBlockEnd
0
BLOCK
5
61
330
60
100
AcDbEntity
8
0
100
AcDbBlockBegin
2
*D29
70
1
10
0
20
0
3
*D29
1

0
LINE
5
D5
100
AcDbEntity
8
Maße
6
CONTINUOUS
62
7
370
0
100
AcDbLine
10
18
20
-6
11
10
21
-6
0
SOLID
5
D6
100
AcDbEntity
8
Maße
6
CONTINUOUS
62
7
370
0
100
AcDbTrace
10
18
20
-6
30
0
11
17.7
21
-6.04995415893
31
0
12
17.7
22
-5.95004584107
32
0
13
17.7
23
-5.95004584107
33
0
0
SOLID
5
D7
100
AcDbEntity
8
Maße
6
CONTINUOUS
62
7
370
0
100
AcDbTrace
10
10
20
-6
30
0
11
10.3
21
-5.95004584107
31
0
12
10.3
22
-6.04995415893
32
0
13
10.3
23
-6.04995415893
33
0
0
MTEXT
5
D8
100
AcDbEntity
8
Maße
6
CONTINUOUS
62
7
370
0
100
AcDbMText
10
14
20
-5.7375
30
0
40
0.4
41
0.177777777778
71
5
72
1
1
8
7
standard
210
0
220
0
230
1
50
360
73
2
44
1
0
LINE
5
D9
100
AcDbEntity
8
Maße
6
CONTINUOUS
62
7
370
0
100
AcDbLine
10
18
20
-4.0625
11
18
21
-6.125
0
LINE
5
DA
100
AcDbEntity
8
Maße
6
CONTINUOUS
62
7
370
0
100
AcDbLine
10
10
20
-4.0625
11
10
21
-6.125
0
ENDBLK
5
62
330
60
100
AcDbEntity
8
0
100
AcDbBlockEnd
0
BLOCK
5
64
330
63
100
AcDbEntity
8
0
100
AcDbBlockBegin
2
*D12
70
1
10
0
20
0
3
*D12
1

0
LINE
5
DB
100
AcDbEntity
8
Maße
6
CONTINUOUS
62
7
370
0
100
AcDbLine
10
69
20
-4.6
11
69
21
-2.9
0
SOLID
5
DC
100
AcDbEntity
8
Maße
6
CONTINUOUS
62
7
370
0
100
AcDbTrace
10
69
20
-4
30
0
11
69.0499541589
21
-4.3
31
0
12
68.9500458411
22
-4.3
32
0
13
68.9500458411
23
-4.3
33
0
0
SOLID
5
DD
100
AcDbEntity
8
Maße
6
CONTINUOUS
62
7
370
0
100
AcDbTrace
10
69
20
-3.5
30
0
11
68.9500458411
21
-3.2
31
0
12
69.0499541589
22
-3.2
32
0
13
69.0499541589
23
-3.2
33
0
0
MTEXT
5
DE
100
AcDbEntity
8
Maße
6
CONTINUOUS
62
7
370
0
100
AcDbMText
10
68.7375
20
-3.12638888889
30
0
40
0.4
41
0.622222222222
71
5
72
1
1
0.5
7
standard
210
0
220
0
230
1
50
90
73
2
44
1
0
LINE
5
DF
100
AcDbEntity
8
Maße
6
CONTINUOUS
62
7
370
0
100
AcDbLine
10
68.0625
20
-4
11
69.125
21
-4
0
LINE
5
E0
100
AcDbEntity
8
Maße
6
CONTINUOUS
62
7
370
0
100
AcDbLine
10
68.0625
20
-3.5
11
69.125
21
-3.5
0
ENDBLK
5
65
330
63
100
AcDbEntity
8
0
100
AcDbBlockEnd
0
BLOCK
5
67
330
66
100
AcDbEntity
8
0
100
AcDbBlockBegin
2
*D11
70
1
10
0
20
0
3
*D11
1

0
LINE
5
E1
100
AcDbEntity
8
Maße
6
CONTINUOUS
62
7
370
0
100
AcDbLine
10
70
20
40
11
70
21
37.5
0
SOLID
5
E2
100
AcDbEntity
8
Maße
6
CONTINUOUS
62
7
370
0
100
AcDbTrace
10
70
20
40
30
0
11
70.0499541589
21
39.7
31
0
12
69.9500458411
22
39.7
32
0
13
69.9500458411
23
39.7
33
0
0
SOLID
5
E3
100
AcDbEntity
8
Maße
6
CONTINUOUS
62
7
370
0
100
AcDbTrace
10
70
20
37.5
30
0
11
69.9500458411
21
37.8
31
0
12
70.0499541589
22
37.8
32
0
13
70.0499541589
23
37.8
33
0
0
MTEXT
5
E4
100
AcDbEntity
8
Maße
6
CONTINUOUS
62
7
370
0
100
AcDbMText
10
69.7375
20
38.75
30
0
40
0.4
41
0.622222222222
71
5
72
1
1
2.5
7
standard
210
0
220
0
230
1
50
90
73
2
44
1
0
LINE
5
E5
100
AcDbEntity
8
Maße
6
CONTINUOUS
62
7
370
0
100
AcDbLine
10
68.0625
20
40
11
70.125
21
40
0
LINE
5
E6
100
AcDbEntity
8
Maße
6
CONTINUOUS
62
7
370
0
100
AcDbLine
10
68.0625
20
37.5
11
70.125
21
37.5
0
ENDBLK
5
68
330
66
100
AcDbEntity
8
0
100
AcDbBlockEnd
0
BLOCK
5
6A
330
69
100
AcDbEntity
8
0
100
AcDbBlockBegin
2
*D15
70
1
10
0
20
0
3
*D15
1

0
LINE
5
E7
100
AcDbEntity
8
Maße
6
CONTINUOUS
62
7
370
0
100
AcDbLine
10
69
20
9.5
11
69
21
17.5
0
SOLID
5
E8
100
AcDbEntity
8
Maße
6
CONTINUOUS
62
7
370
0
100
AcDbTrace
10
69
20
9.5
30
0
11
68.9500458411
21
9.8
31
0
12
69.0499541589
22
9.8
32
0
13
69.0499541589
23
9.8
33
0
0
SOLID
5
E9
100
AcDbEntity
8
Maße
6
CONTINUOUS
62
7
370
0
100
AcDbTrace
10
69
20
17.5
30
0
11
69.0499541589
21
17.2
31
0
12
68.9500458411
22
17.2
32
0
13
68.9500458411
23
17.2
33
0
0
MTEXT
5
EA
100
AcDbEntity
8
Maße
6
CONTINUOUS
62
7
370
0
100
AcDbMText
10
68.7375
20
13.5
30
0
40
0.4
41
0.177777777778
71
5
72
1
1
8
7
standard
210
0
220
0
230
1
50
90
73
2
44
1
0
LINE
5
EB
100
AcDbEntity
8
Maße
6
CONTINUOUS
62
7
370
0
100
AcDbLine
10
68.0625
20
9.5
11
69.125
21
9.5
0
LINE
5
EC
100
AcDbEntity
8
Maße
6
CONTINUOUS
62
7
370
0
100
AcDbLine
10
68.0625
20
17.5
11
69.125
21
17.5
0
ENDBLK
5
6B
330
69
100
AcDbEntity
8
0
100
AcDbBlockEnd
0
BLOCK
5
6D
330
6C
100
AcDbEntity
8
0
100
AcDbBlockBegin
2
*D8
70
1
10
0
20
0
3
*D8
1

0
LINE
5
ED
100
AcDbEntity
8
Maße
6
CONTINUOUS
62
7
370
0
100
AcDbLine
10
70
20
9.5
11
70
21
26.5
0
SOLID
5
EE
100
AcDbEntity
8
Maße
6
CONTINUOUS
62
7
370
0
100
AcDbTrace
10
70
20
9.5
30
0
11
69.9500458411
21
9.8
31
0
12
70.0499541589
22
9.8
32
0
13
70.0499541589
23
9.8
33
0
0
SOLID
5
EF
100
AcDbEntity
8
Maße
6
CONTINUOUS
62
7
370
0
100
AcDbTrace
10
70
20
26.5
30
0
11
70.0499541589
21
26.2
31
0
12
69.9500458411
22
26.2
32
0
13
69.9500458411
23
26.2
33
0
0
MTEXT
5
F0
100
AcDbEntity
8
Maße
6
CONTINUOUS
62
7
370
0
100
AcDbMText
10
69.7375
20
18
30
0
40
0.4
41
0.4
71
5
72
1
1
17
7
standard
210
0
220
0
230
1
50
90
73
2
44
1
0
LINE
5
F1
100
AcDbEntity
8
Maße
6
CONTINUOUS
62
7
370
0
100
AcDbLine
10
68.0625
20
9.5
11
70.125
21
9.5
0
LINE
5
F2
100
AcDbEntity
8
Maße
6
CONTINUOUS
62
7
370
0
100
AcDbLine
10
68.0625
20
26.5
11
70.125
21
26.5
0
ENDBLK
5
6E
330
6C
100
AcDbEntity
8
0
100
AcDbBlockEnd
0
BLOCK
5
70
330
6F
100
AcDbEntity
8
0
100
AcDbBlockBegin
2
*D9
70
1
10
0
20
0
3
*D9
1

0
LINE
5
F3
100
AcDbEntity
8
Maße
6
CONTINUOUS
62
7
370
0
100
AcDbLine
10
70
20
26.5
11
70
21
29.5
0
SOLID
5
F4
100
AcDbEntity
8
Maße
6
CONTINUOUS
62
7
370
0
100
AcDbTrace
10
70
20
26.5
30
0
11
69.9500458411
21
26.8
31
0
12
70.0499541589
22
26.8
32
0
13
70.0499541589
23
26.8
33
0
0
SOLID
5
F5
100
AcDbEntity
8
Maße
6
CONTINUOUS
62
7
370
0
100
AcDbTrace
10
70
20
29.5
30
0
11
70.0499541589
21
29.2
31
0
12
69.9500458411
22
29.2
32
0
13
69.9500458411
23
29.2
33
0
0
MTEXT
5
F6
100
AcDbEntity
8
Maße
6
CONTINUOUS
62
7
370
0
100
AcDbMText
10
69.7375
20
28
30
0
40
0.4
41
0.177777777778
71
5
72
1
1
3
7
standard
210
0
220
0
230
1
50
90
73
2
44
1
0
LINE
5
F7
100
AcDbEntity
8
Maße
6
CONTINUOUS
62
7
370
0
100
AcDbLine
10
68.0625
20
26.5
11
70.125
21
26.5
0
LINE
5
F8
100
AcDbEntity
8
Maße
6
CONTINUOUS
62
7
370
0
100
AcDbLine
10
68.0625
20
29.5
11
70.125
21
29.5
0
ENDBLK
5
71
330
6F
100
AcDbEntity
8
0
100
AcDbBlockEnd
0
BLOCK
5
73
330
72
100
AcDbEntity
8
0
100
AcDbBlockBegin
2
*D24
70
1
10
0
20
0
3
*D24
1

0
LINE
5
F9
100
AcDbEntity
8
Maße
6
CONTINUOUS
62
7
370
0
100
AcDbLine
10
65.5
20
-5
11
63
21
-5
0
SOLID
5
FA
100
AcDbEntity
8
Maße
6
CONTINUOUS
62
7
370
0
100
AcDbTrace
10
65.5
20
-5
30
0
11
65.2
21
-5.04995415893
31
0
12
65.2
22
-4.95004584107
32
0
13
65.2
23
-4.95004584107
33
0
0
SOLID
5
FB
100
AcDbEntity
8
Maße
6
CONTINUOUS
62
7
370
0
100
AcDbTrace
10
63
20
-5
30
0
11
63.3
21
-4.95004584107
31
0
12
63.3
22
-5.04995415893
32
0
13
63.3
23
-5.04995415893
33
0
0
MTEXT
5
FC
100
AcDbEntity
8
Maße
6
CONTINUOUS
62
7
370
0
100
AcDbMText
10
64.25
20
-4.7375
30
0
40
0.4
41
0.622222222222
71
5
72
1
1
2.5
7
standard
210
0
220
0
230
1
50
360
73
2
44
1
0
LINE
5
FD
100
AcDbEntity
8
Maße
6
CONTINUOUS
62
7
370
0
100
AcDbLine
10
65.5
20
-4.0625
11
65.5
21
-5.125
0
LINE
5
FE
100
AcDbEntity
8
Maße
6
CONTINUOUS
62
7
370
0
100
AcDbLine
10
63
20
-4.0625
11
63
21
-5.125
0
ENDBLK
5
74
330
72
100
AcDbEntity
8
0
100
AcDbBlockEnd
0
BLOCK
5
76
330
75
100
AcDbEntity
8
0
100
AcDbBlockBegin
2
*D6
70
1
10
0
20
0
3
*D6
1

0
LINE
5
FF
100
AcDbEntity
8
Maße
6
CONTINUOUS
62
7
370
0
100
AcDbLine
10
70
20
-1.5
11
70
21
6.5
0
SOLID
5
100
100
AcDbEntity
8
Maße
6
CONTINUOUS
62
7
370
0
100
AcDbTrace
10
70
20
-1.5
30
0
11
69.9500458411
21
-1.2
31
0
12
70.0499541589
22
-1.2
32
0
13
70.0499541589
23
-1.2
33
0
0
SOLID
5
101
100
AcDbEntity
8
Maße
6
CONTINUOUS
62
7
370
0
100
AcDbTrace
10
70
20
6.5
30
0
11
70.0499541589
21
6.2
31
0
12
69.9500458411
22
6.2
32
0
13
69.9500458411
23
6.2
33
0
0
MTEXT
5
102
100
AcDbEntity
8
Maße
6
CONTINUOUS
62
7
370
0
100
AcDbMText
10
69.7375
20
2.5
30
0
40
0.4
41
0.177777777778
71
5
72
1
1
8
7
standard
210
0
220
0
230
1
50
90
73
2
44
1
0
LINE
5
103
100
AcDbEntity
8
Maße
6
CONTINUOUS
62
7
370
0
100
AcDbLine
10
68.0625
20
-1.5
11
70.125
21
-1.5
0
LINE
5
104
100
AcDbEntity
8
Maße
6
CONTINUOUS
62
7
370
0
100
AcDbLine
10
68.0625
20
6.5
11
70.125
21
6.5
0
ENDBLK
5
77
330
75
100
AcDbEntity
8
0
100
AcDbBlockEnd
0
BLOCK
5
79
330
78
100
AcDbEntity
8
0
100
AcDbBlockBegin
2
*D14
70
1
10
0
20
0
3
*D14
1

0
LINE
5
105
100
AcDbEntity
8
Maße
6
CONTINUOUS
62
7
370
0
100
AcDbLine
10
69
20
-2.5
11
69
21
-1.5
0
SOLID
5
106
100
AcDbEntity
8
Maße
6
CONTINUOUS
62
7
370
0
100
AcDbTrace
10
69
20
-2.5
30
0
11
68.9500458411
21
-2.2
31
0
12
69.0499541589
22
-2.2
32
0
13
69.0499541589
23
-2.2
33
0
0
SOLID
5
107
100
AcDbEntity
8
Maße
6
CONTINUOUS
62
7
370
0
100
AcDbTrace
10
69
20
-1.5
30
0
11
69.0499541589
21
-1.8
31
0
12
68.9500458411
22
-1.8
32
0
13
68.9500458411
23
-1.8
33
0
0
MTEXT
5
108
100
AcDbEntity
8
Maße
6
CONTINUOUS
62
7
370
0
100
AcDbMText
10
68.7375
20
-2
30
0
40
0.4
41
0.0888888888889
71
5
72
1
1
1
7
standard
210
0
220
0
230
1
50
90
73
2
44
1
0
LINE
5
109
100
AcDbEntity
8
Maße
6
CONTINUOUS
62
7
370
0
100
AcDbLine
10
68.0625
20
-2.5
11
69.125
21
-2.5
0
LINE
5
10A
100
AcDbEntity
8
Maße
6
CONTINUOUS
62
7
370
0
100
AcDbLine
10
68.0625
20
-1.5
11
69.125
21
-1.5
0
ENDBLK
5
7A
330
78
100
AcDbEntity
8
0
100
AcDbBlockEnd
0
BLOCK
5
7C
330
7B
100
AcDbEntity
8
0
100
AcDbBlockBegin
2
*D19
70
1
10
0
20
0
3
*D19
1

0
LINE
5
10B
100
AcDbEntity
8
Maße
6
CONTINUOUS
62
7
370
0
100
AcDbLine
10
69
20
38.5
11
69
21
39.5
0
SOLID
5
10C
100
AcDbEntity
8
Maße
6
CONTINUOUS
62
7
370
0
100
AcDbTrace
10
69
20
38.5
30
0
11
68.9500458411
21
38.8
31
0
12
69.0499541589
22
38.8
32
0
13
69.0499541589
23
38.8
33
0
0
SOLID
5
10D
100
AcDbEntity
8
Maße
6
CONTINUOUS
62
7
370
0
100
AcDbTrace
10
69
20
39.5
30
0
11
69.0499541589
21
39.2
31
0
12
68.9500458411
22
39.2
32
0
13
68.9500458411
23
39.2
33
0
0
MTEXT
5
10E
100
AcDbEntity
8
Maße
6
CONTINUOUS
62
7
370
0
100
AcDbMText
10
68.7375
20
39
30
0
40
0.4
41
0.0888888888889
71
5
72
1
1
1
7
standard
210
0
220
0
230
1
50
90
73
2
44
1
0
LINE
5
10F
100
AcDbEntity
8
Maße
6
CONTINUOUS
62
7
370
0
100
AcDbLine
10
68.0625
20
38.5
11
69.125
21
38.5
0
LINE
5
110
100
AcDbEntity
8
Maße
6
CONTINUOUS
62
7
370
0
100
AcDbLine
10
68.0625
20
39.5
11
69.125
21
39.5
0
ENDBLK
5
7D
330
7B
100
AcDbEntity
8
0
100
AcDbBlockEnd
0
BLOCK
5
7F
330
7E
100
AcDbEntity
8
0
100
AcDbBlockBegin
2
*D16
70
1
10
0
20
0
3
*D16
1

0
LINE
5
111
100
AcDbEntity
8
Maße
6
CONTINUOUS
62
7
370
0
100
AcDbLine
10
69
20
17.5
11
69
21
18.5
0
SOLID
5
112
100
AcDbEntity
8
Maße
6
CONTINUOUS
62
7
370
0
100
AcDbTrace
10
69
20
17.5
30
0
11
68.9500458411
21
17.8
31
0
12
69.0499541589
22
17.8
32
0
13
69.0499541589
23
17.8
33
0
0
SOLID
5
113
100
AcDbEntity
8
Maße
6
CONTINUOUS
62
7
370
0
100
AcDbTrace
10
69
20
18.5
30
0
11
69.0499541589
21
18.2
31
0
12
68.9500458411
22
18.2
32
0
13
68.9500458411
23
18.2
33
0
0
MTEXT
5
114
100
AcDbEntity
8
Maße
6
CONTINUOUS
62
7
370
0
100
AcDbMText
10
68.7375
20
18
30
0
40
0.4
41
0.0888888888889
71
5
72
1
1
1
7
standard
210
0
220
0
230
1
50
90
73
2
44
1
0
LINE
5
115
100
AcDbEntity
8
Maße
6
CONTINUOUS
62
7
370
0
100
AcDbLine
10
68.0625
20
17.5
11
69.125
21
17.5
0
LINE
5
116
100
AcDbEntity
8
Maße
6
CONTINUOUS
62
7
370
0
100
AcDbLine
10
68.0625
20
18.5
11
69.125
21
18.5
0
ENDBLK
5
80
330
7E
100
AcDbEntity
8
0
100
AcDbBlockEnd
0
BLOCK
5
82
330
81
100
AcDbEntity
8
0
100
AcDbBlockBegin
2
*D25
70
1
10
0
20
0
3
*D25
1

0
LINE
5
117
100
AcDbEntity
8
Maße
6
CONTINUOUS
62
7
370
0
100
AcDbLine
10
63.6
20
-5
11
61.9
21
-5
0
SOLID
5
118
100
AcDbEntity
8
Maße
6
CONTINUOUS
62
7
370
0
100
AcDbTrace
10
63
20
-5
30
0
11
63.3
21
-4.95004584107
31
0
12
63.3
22
-5.04995415893
32
0
13
63.3
23
-5.04995415893
33
0
0
SOLID
5
119
100
AcDbEntity
8
Maße
6
CONTINUOUS
62
7
370
0
100
AcDbTrace
10
62.5
20
-5
30
0
11
62.2
21
-5.04995415893
31
0
12
62.2
22
-4.95004584107
32
0
13
62.2
23
-4.95004584107
33
0
0
MTEXT
5
11A
100
AcDbEntity
8
Maße
6
CONTINUOUS
62
7
370
0
100
AcDbMText
10
63.3736111111
20
-4.7375
30
0
40
0.4
41
0.622222222222
71
5
72
1
1
0.5
7
standard
210
0
220
0
230
1
50
360
73
2
44
1
0
LINE
5
11B
100
AcDbEntity
8
Maße
6
CONTINUOUS
62
7
370
0
100
AcDbLine
10
63
20
-4.0625
11
63
21
-5.125
0
LINE
5
11C
100
AcDbEntity
8
Maße
6
CONTINUOUS
62
7
370
0
100
AcDbLine
10
62.5
20
-4.0625
11
62.5
21
-5.125
0
ENDBLK
5
83
330
81
100
AcDbEntity
8
0
100
AcDbBlockEnd
0
BLOCK
5
85
330
84
100
AcDbEntity
8
0
100
AcDbBlockBegin
2
*D27
70
1
10
0
20
0
3
*D27
1

0
LINE
5
11D
100
AcDbEntity
8
Maße
6
CONTINUOUS
62
7
370
0
100
AcDbLine
10
65.5
20
-6
11
18
21
-6
0
SOLID
5
11E
100
AcDbEntity
8
Maße
6
CONTINUOUS
62
7
370
0
100
AcDbTrace
10
65.5
20
-6
30
0
11
65.2
21
-6.04995415893
31
0
12
65.2
22
-5.95004584107
32
0
13
65.2
23
-5.95004584107
33
0
0
SOLID
5
11F
100
AcDbEntity
8
Maße
6
CONTINUOUS
62
7
370
0
100
AcDbTrace
10
18
20
-6
30
0
11
18.3
21
-5.95004584107
31
0
12
18.3
22
-6.04995415893
32
0
13
18.3
23
-6.04995415893
33
0
0
MTEXT
5
120
100
AcDbEntity
8
Maße
6
CONTINUOUS
62
7
370
0
100
AcDbMText
10
41.75
20
-5.7375
30
0
40
0.4
41
0.977777777778
71
5
72
1
1
47.5
7
standard
210
0
220
0
230
1
50
360
73
2
44
1
0
LINE
5
121
100
AcDbEntity
8
Maße
6
CONTINUOUS
62
7
370
0
100
AcDbLine
10
65.5
20
-4.0625
11
65.5
21
-6.125
0
LINE
5
122
100
AcDbEntity
8
Maße
6
CONTINUOUS
62
7
370
0
100
AcDbLine
10
18
20
-4.0625
11
18
21
-6.125
0
ENDBLK
5
86
330
84
100
AcDbEntity
8
0
100
AcDbBlockEnd
0
BLOCK
5
88
330
87
100
AcDbEntity
8
0
100
AcDbBlockBegin
2
*D2
70
1
10
0
20
0
3
*D2
1

0
LINE
5
123
100
AcDbEntity
8
Maße
6
CONTINUOUS
62
7
370
0
100
AcDbLine
10
0
20
42
11
68
21
42
0
SOLID
5
124
100
AcDbEntity
8
Maße
6
CONTINUOUS
62
7
370
0
100
AcDbTrace
10
0
20
42
30
0
11
0.3
21
42.0499541589
31
0
12
0.3
22
41.9500458411
32
0
13
0.3
23
41.9500458411
33
0
0
SOLID
5
125
100
AcDbEntity
8
Maße
6
CONTINUOUS
62
7
370
0
100
AcDbTrace
10
68
20
42
30
0
11
67.7
21
41.9500458411
31
0
12
67.7
22
42.0499541589
32
0
13
67.7
23
42.0499541589
33
0
0
MTEXT
5
126
100
AcDbEntity
8
Maße
6
CONTINUOUS
62
7
370
0
100
AcDbMText
10
34
20
42.2625
30
0
40
0.4
41
0.488888888889
71
5
72
1
1
68
7
standard
210
0
220
0
230
1
50
0
73
2
44
1
0
LINE
5
127
100
AcDbEntity
8
Maße
6
CONTINUOUS
62
7
370
0
100
AcDbLine
10
3.82702124734e-18
20
40.0625
11
7.65404249467e-18
21
42.125
0
LINE
5
128
100
AcDbEntity
8
Maße
6
CONTINUOUS
62
7
370
0
100
AcDbLine
10
68
20
40.0625
11
68
21
42.125
0
ENDBLK
5
89
330
87
100
AcDbEntity
8
0
100
AcDbBlockEnd
0
BLOCK
5
8B
330
8A
100
AcDbEntity
8
0
100
AcDbBlockBegin
2
*D5
70
1
10
0
20
0
3
*D5
1

0
LINE
5
129
100
AcDbEntity
8
Maße
6
CONTINUOUS
62
7
370
0
100
AcDbLine
10
70
20
-4
11
70
21
-1.5
0
SOLID
5
12A
100
AcDbEntity
8
Maße
6
CONTINUOUS
62
7
370
0
100
AcDbTrace
10
70
20
-4
30
0
11
69.9500458411
21
-3.7
31
0
12
70.0499541589
22
-3.7
32
0
13
70.0499541589
23
-3.7
33
0
0
SOLID
5
12B
100
AcDbEntity
8
Maße
6
CONTINUOUS
62
7
370
0
100
AcDbTrace
10
70
20
-1.5
30
0
11
70.0499541589
21
-1.8
31
0
12
69.9500458411
22
-1.8
32
0
13
69.9500458411
23
-1.8
33
0
0
MTEXT
5
12C
100
AcDbEntity
8
Maße
6
CONTINUOUS
62
7
370
0
100
AcDbMText
10
69.7375
20
-2.75
30
0
40
0.4
41
0.622222222222
71
5
72
1
1
2.5
7
standard
210
0
220
0
230
1
50
90
73
2
44
1
0
LINE
5
12D
100
AcDbEntity
8
Maße
6
CONTINUOUS
62
7
370
0
100
AcDbLine
10
68.0625
20
-4
11
70.125
21
-4
0
LINE
5
12E
100
AcDbEntity
8
Maße
6
CONTINUOUS
62
7
370
0
100
AcDbLine
10
68.0625
20
-1.5
11
70.125
21
-1.5
0
ENDBLK
5
8C
330
8A
100
AcDbEntity
8
0
100
AcDbBlockEnd
0
BLOCK
5
8E
330
8D
100
AcDbEntity
8
0
100
AcDbBlockBegin
2
*D10
70
1
10
0
20
0
3
*D10
1

0
LINE
5
12F
100
AcDbEntity
8
Maße
6
CONTINUOUS
62
7
370
0
100
AcDbLine
10
70
20
29.5
11
70
21
37.5
0
SOLID
5
130
100
AcDbEntity
8
Maße
6
CONTINUOUS
62
7
370
0
100
AcDbTrace
10
70
20
29.5
30
0
11
69.9500458411
21
29.8
31
0
12
70.0499541589
22
29.8
32
0
13
70.0499541589
23
29.8
33
0
0
SOLID
5
131
100
AcDbEntity
8
Maße
6
CONTINUOUS
62
7
370
0
100
AcDbTrace
10
70
20
37.5
30
0
11
70.0499541589
21
37.2
31
0
12
69.9500458411
22
37.2
32
0
13
69.9500458411
23
37.2
33
0
0
MTEXT
5
132
100
AcDbEntity
8
Maße
6
CONTINUOUS
62
7
370
0
100
AcDbMText
10
69.7375
20
33.5
30
0
40
0.4
41
0.177777777778
71
5
72
1
1
8
7
standard
210
0
220
0
230
1
50
90
73
2
44
1
0
LINE
5
133
100
AcDbEntity
8
Maße
6
CONTINUOUS
62
7
370
0
100
AcDbLine
10
68.0625
20
29.5
11
70.125
21
29.5
0
LINE
5
134
100
AcDbEntity
8
Maße
6
CONTINUOUS
62
7
370
0
100
AcDbLine
10
68.0625
20
37.5
11
70.125
21
37.5
0
ENDBLK
5
8F
330
8D
100
AcDbEntity
8
0
100
AcDbBlockEnd
0
BLOCK
5
91
330
90
100
AcDbEntity
8
0
100
AcDbBlockBegin
2
*D7
70
1
10
0
20
0
3
*D7
1

0
LINE
5
135
100
AcDbEntity
8
Maße
6
CONTINUOUS
62
7
370
0
100
AcDbLine
10
70
20
6.5
11
70
21
9.5
0
SOLID
5
136
100
AcDbEntity
8
Maße
6
CONTINUOUS
62
7
370
0
100
AcDbTrace
10
70
20
6.5
30
0
11
69.9500458411
21
6.8
31
0
12
70.0499541589
22
6.8
32
0
13
70.0499541589
23
6.8
33
0
0
SOLID
5
137
100
AcDbEntity
8
Maße
6
CONTINUOUS
62
7
370
0
100
AcDbTrace
10
70
20
9.5
30
0
11
70.0499541589
21
9.2
31
0
12
69.9500458411
22
9.2
32
0
13
69.9500458411
23
9.2
33
0
0
MTEXT
5
138
100
AcDbEntity
8
Maße
6
CONTINUOUS
62
7
370
0
100
AcDbMText
10
69.7375
20
8
30
0
40
0.4
41
0.177777777778
71
5
72
1
1
3
7
standard
210
0
220
0
230
1
50
90
73
2
44
1
0
LINE
5
139
100
AcDbEntity
8
Maße
6
CONTINUOUS
62
7
370
0
100
AcDbLine
10
68.0625
20
6.5
11
70.125
21
6.5
0
LINE
5
13A
100
AcDbEntity
8
Maße
6
CONTINUOUS
62
7
370
0
100
AcDbLine
10
68.0625
20
9.5
11
70.125
21
9.5
0
ENDBLK
5
92
330
90
100
AcDbEntity
8
0
100
AcDbBlockEnd
0
BLOCK
5
94
330
93
100
AcDbEntity
8
0
100
AcDbBlockBegin
2
*D26
70
1
10
0
20
0
3
*D26
1

0
LINE
5
13B
100
AcDbEntity
8
Maße
6
CONTINUOUS
62
7
370
0
100
AcDbLine
10
62.5
20
-5
11
60
21
-5
0
SOLID
5
13C
100
AcDbEntity
8
Maße
6
CONTINUOUS
62
7
370
0
100
AcDbTrace
10
62.5
20
-5
30
0
11
62.2
21
-5.04995415893
31
0
12
62.2
22
-4.95004584107
32
0
13
62.2
23
-4.95004584107
33
0
0
SOLID
5
13D
100
AcDbEntity
8
Maße
6
CONTINUOUS
62
7
370
0
100
AcDbTrace
10
60
20
-5
30
0
11
60.3
21
-4.95004584107
31
0
12
60.3
22
-5.04995415893
32
0
13
60.3
23
-5.04995415893
33
0
0
MTEXT
5
13E
100
AcDbEntity
8
Maße
6
CONTINUOUS
62
7
370
0
100
AcDbMText
10
61.25
20
-4.7375
30
0
40
0.4
41
0.622222222222
71
5
72
1
1
2.5
7
standard
210
0
220
0
230
1
50
360
73
2
44
1
0
LINE
5
13F
100
AcDbEntity
8
Maße
6
CONTINUOUS
62
7
370
0
100
AcDbLine
10
62.5
20
-4.0625
11
62.5
21
-5.125
0
LINE
5
140
100
AcDbEntity
8
Maße
6
CONTINUOUS
62
7
370
0
100
AcDbLine
10
60
20
-4.0625
11
60
21
-5.125
0
ENDBLK
5
95
330
93
100
AcDbEntity
8
0
100
AcDbBlockEnd
0
BLOCK
5
97
330
96
100
AcDbEntity
8
0
100
AcDbBlockBegin
2
*D32
70
1
10
0
20
0
3
*D32
1

0
LINE
5
141
100
AcDbEntity
8
Maße
6
CONTINUOUS
62
7
370
0
100
AcDbLine
10
0
20
-5
11
1.5
21
-5
0
SOLID
5
142
100
AcDbEntity
8
Maße
6
CONTINUOUS
62
7
370
0
100
AcDbTrace
10
0
20
-5
30
0
11
0.3
21
-4.95004584107
31
0
12
0.3
22
-5.04995415893
32
0
13
0.3
23
-5.04995415893
33
0
0
SOLID
5
143
100
AcDbEntity
8
Maße
6
CONTINUOUS
62
7
370
0
100
AcDbTrace
10
1.5
20
-5
30
0
11
1.2
21
-5.04995415893
31
0
12
1.2
22
-4.95004584107
32
0
13
1.2
23
-4.95004584107
33
0
0
MTEXT
5
144
100
AcDbEntity
8
Maße
6
CONTINUOUS
62
7
370
0
100
AcDbMText
10
0.75
20
-4.7375
30
0
40
0.4
41
0.533333333333
71
5
72
1
1
1.5
7
standard
210
0
220
0
230
1
50
0
73
2
44
1
0
LINE
5
145
100
AcDbEntity
8
Maße
6
CONTINUOUS
62
7
370
0
100
AcDbLine
10
-1.1481063742e-17
20
-4.0625
11
-2.2962127484e-17
21
-5.125
0
LINE
5
146
100
AcDbEntity
8
Maße
6
CONTINUOUS
62
7
370
0
100
AcDbLine
10
1.5
20
-4.0625
11
1.5
21
-5.125
0
ENDBLK
5
98
330
96
100
AcDbEntity
8
0
100
AcDbBlockEnd
0
BLOCK
5
9A
330
99
100
AcDbEntity
8
0
100
AcDbBlockBegin
2
*D30
70
1
10
0
20
0
3
*D30
1

0
LINE
5
147
100
AcDbEntity
8
Maße
6
CONTINUOUS
62
7
370
0
100
AcDbLine
10
68
20
-8
11
2.5
21
-8
0
SOLID
5
148
100
AcDbEntity
8
Maße
6
CONTINUOUS
62
7
370
0
100
AcDbTrace
10
68
20
-8
30
0
11
67.7
21
-8.04995415893
31
0
12
67.7
22
-7.95004584107
32
0
13
67.7
23
-7.95004584107
33
0
0
SOLID
5
149
100
AcDbEntity
8
Maße
6
CONTINUOUS
62
7
370
0
100
AcDbTrace
10
2.5
20
-8
30
0
11
2.8
21
-7.95004584107
31
0
12
2.8
22
-8.04995415893
32
0
13
2.8
23
-8.04995415893
33
0
0
MTEXT
5
14A
100
AcDbEntity
8
Maße
6
CONTINUOUS
62
7
370
0
100
AcDbMText
10
35.25
20
-7.7375
30
0
40
0.4
41
0.933333333333
71
5
72
1
1
65.5
7
standard
210
0
220
0
230
1
50
360
73
2
44
1
0
LINE
5
14B
100
AcDbEntity
8
Maße
6
CONTINUOUS
62
7
370
0
100
AcDbLine
10
68
20
-4.0625
11
68
21
-8.125
0
LINE
5
14C
100
AcDbEntity
8
Maße
6
CONTINUOUS
62
7
370
0
100
AcDbLine
10
2.5
20
-4.0625
11
2.5
21
-8.125
0
ENDBLK
5
9B
330
99
100
AcDbEntity
8
0
100
AcDbBlockEnd
0
BLOCK
5
9D
330
9C
100
AcDbEntity
8
0
100
AcDbBlockBegin
2
*D33
70
1
10
0
20
0
3
*D33
1

0
LINE
5
14D
100
AcDbEntity
8
Maße
6
CONTINUOUS
62
7
370
0
100
AcDbLine
10
1.5
20
-5
11
2.5
21
-5
0
SOLID
5
14E
100
AcDbEntity
8
Maße
6
CONTINUOUS
62
7
370
0
100
AcDbTrace
10
1.5
20
-5
30
0
11
1.8
21
-4.95004584107
31
0
12
1.8
22
-5.04995415893
32
0
13
1.8
23
-5.04995415893
33
0
0
SOLID
5
14F
100
AcDbEntity
8
Maße
6
CONTINUOUS
62
7
370
0
100
AcDbTrace
10
2.5
20
-5
30
0
11
2.2
21
-5.04995415893
31
0
12
2.2
22
-4.95004584107
32
0
13
2.2
23
-4.95004584107
33
0
0
MTEXT
5
150
100
AcDbEntity
8
Maße
6
CONTINUOUS
62
7
370
0
100
AcDbMText
10
2
20
-4.7375
30
0
40
0.4
41
0.0888888888889
71
5
72
1
1
1
7
standard
210
0
220
0
230
1
50
0
73
2
44
1
0
LINE
5
151
100
AcDbEntity
8
Maße
6
CONTINUOUS
62
7
370
0
100
AcDbLine
10
1.5
20
-4.0625
11
1.5
21
-5.125
0
LINE
5
152
100
AcDbEntity
8
Maße
6
CONTINUOUS
62
7
370
0
100
AcDbLine
10
2.5
20
-4.0625
11
2.5
21
-5.125
0
ENDBLK
5
9E
330
9C
100
AcDbEntity
8
0
100
AcDbBlockEnd
0
BLOCK
5
A0
330
9F
100
AcDbEntity
8
0
100
AcDbBlockBegin
2
*D4
70
1
10
0
20
0
3
*D4
1

0
LINE
5
153
100
AcDbEntity
8
Maße
6
CONTINUOUS
62
7
370
0
100
AcDbLine
10
71
20
-4
11
71
21
40
0
SOLID
5
154
100
AcDbEntity
8
Maße
6
CONTINUOUS
62
7
370
0
100
AcDbTrace
10
71
20
-4
30
0
11
70.9500458411
21
-3.7
31
0
12
71.0499541589
22
-3.7
32
0
13
71.0499541589
23
-3.7
33
0
0
SOLID
5
155
100
AcDbEntity
8
Maße
6
CONTINUOUS
62
7
370
0
100
AcDbTrace
10
71
20
40
30
0
11
71.0499541589
21
39.7
31
0
12
70.9500458411
22
39.7
32
0
13
70.9500458411
23
39.7
33
0
0
MTEXT
5
156
100
AcDbEntity
8
Maße
6
CONTINUOUS
62
7
370
0
100
AcDbMText
10
70.7375
20
18
30
0
40
0.4
41
0.577777777778
71
5
72
1
1
44
7
standard
210
0
220
0
230
1
50
90
73
2
44
1
0
LINE
5
157
100
AcDbEntity
8
Maße
6
CONTINUOUS
62
7
370
0
100
AcDbLine
10
68.0625
20
-4
11
71.125
21
-4
0
LINE
5
158
100
AcDbEntity
8
Maße
6
CONTINUOUS
62
7
370
0
100
AcDbLine
10
68.0625
20
40
11
71.125
21
40
0
ENDBLK
5
A1
330
9F
100
AcDbEntity
8
0
100
AcDbBlockEnd
0
BLOCK
5
A3
330
A2
100
AcDbEntity
8
0
100
AcDbBlockBegin
2
*D22
70
1
10
0
20
0
3
*D22
1

0
LINE
5
159
100
AcDbEntity
8
Maße
6
CONTINUOUS
62
7
370
0
100
AcDbLine
10
67.5
20
-5
11
66.5
21
-5
0
SOLID
5
15A
100
AcDbEntity
8
Maße
6
CONTINUOUS
62
7
370
0
100
AcDbTrace
10
67.5
20
-5
30
0
11
67.2
21
-5.04995415893
31
0
12
67.2
22
-4.95004584107
32
0
13
67.2
23
-4.95004584107
33
0
0
SOLID
5
15B
100
AcDbEntity
8
Maße
6
CONTINUOUS
62
7
370
0
100
AcDbTrace
10
66.5
20
-5
30
0
11
66.8
21
-4.95004584107
31
0
12
66.8
22
-5.04995415893
32
0
13
66.8
23
-5.04995415893
33
0
0
MTEXT
5
15C
100
AcDbEntity
8
Maße
6
CONTINUOUS
62
7
370
0
100
AcDbMText
10
67
20
-4.7375
30
0
40
0.4
41
0.0888888888889
71
5
72
1
1
1
7
standard
210
0
220
0
230
1
50
360
73
2
44
1
0
LINE
5
15D
100
AcDbEntity
8
Maße
6
CONTINUOUS
62
7
370
0
100
AcDbLine
10
67.5
20
-4.0625
11
67.5
21
-5.125
0
LINE
5
15E
100
AcDbEntity
8
Maße
6
CONTINUOUS
62
7
370
0
100
AcDbLine
10
66.5
20
-4.0625
11
66.5
21
-5.125
0
ENDBLK
5
A4
330
A2
100
AcDbEntity
8
0
100
AcDbBlockEnd
0
BLOCK
5
A6
330
A5
100
AcDbEntity
8
0
100
AcDbBlockBegin
2
*D28
70
1
10
0
20
0
3
*D28
1

0
LINE
5
15F
100
AcDbEntity
8
Maße
6
CONTINUOUS
62
7
370
0
100
AcDbLine
10
65.5
20
-7
11
10
21
-7
0
SOLID
5
160
100
AcDbEntity
8
Maße
6
CONTINUOUS
62
7
370
0
100
AcDbTrace
10
65.5
20
-7
30
0
11
65.2
21
-7.04995415893
31
0
12
65.2
22
-6.95004584107
32
0
13
65.2
23
-6.95004584107
33
0
0
SOLID
5
161
100
AcDbEntity
8
Maße
6
CONTINUOUS
62
7
370
0
100
AcDbTrace
10
10
20
-7
30
0
11
10.3
21
-6.95004584107
31
0
12
10.3
22
-7.04995415893
32
0
13
10.3
23
-7.04995415893
33
0
0
MTEXT
5
162
100
AcDbEntity
8
Maße
6
CONTINUOUS
62
7
370
0
100
AcDbMText
10
37.75
20
-6.7375
30
0
40
0.4
41
0.933333333333
71
5
72
1
1
55.5
7
standard
210
0
220
0
230
1
50
360
73
2
44
1
0
LINE
5
163
100
AcDbEntity
8
Maße
6
CONTINUOUS
62
7
370
0
100
AcDbLine
10
65.5
20
-4.0625
11
65.5
21
-7.125
0
LINE
5
164
100
AcDbEntity
8
Maße
6
CONTINUOUS
62
7
370
0
100
AcDbLine
10
10
20
-4.0625
11
10
21
-7.125
0
ENDBLK
5
A7
330
A5
100
AcDbEntity
8
0
100
AcDbBlockEnd
0
BLOCK
5
A9
330
A8
100
AcDbEntity
8
0
100
AcDbBlockBegin
2
*D1
70
1
10
0
20
0
3
*D1
1

0
LINE
5
165
100
AcDbEntity
8
Maße
6
CONTINUOUS
62
7
370
0
100
AcDbLine
10
0
20
41
11
6
21
41
0
SOLID
5
166
100
AcDbEntity
8
Maße
6
CONTINUOUS
62
7
370
0
100
AcDbTrace
10
0
20
41
30
0
11
0.3
21
41.0499541589
31
0
12
0.3
22
40.9500458411
32
0
13
0.3
23
40.9500458411
33
0
0
SOLID
5
167
100
AcDbEntity
8
Maße
6
CONTINUOUS
62
7
370
0
100
AcDbTrace
10
6
20
41
30
0
11
5.7
21
40.9500458411
31
0
12
5.7
22
41.0499541589
32
0
13
5.7
23
41.0499541589
33
0
0
MTEXT
5
168
100
AcDbEntity
8
Maße
6
CONTINUOUS
62
7
370
0
100
AcDbMText
10
3
20
41.2625
30
0
40
0.4
41
0.177777777778
71
5
72
1
1
6
7
standard
210
0
220
0
230
1
50
0
73
2
44
1
0
LINE
5
169
100
AcDbEntity
8
Maße
6
CONTINUOUS
62
7
370
0
100
AcDbLine
10
3.82702124734e-18
20
40.0625
11
7.65404249467e-18
21
41.125
0
LINE
5
16A
100
AcDbEntity
8
Maße
6
CONTINUOUS
62
7
370
0
100
AcDbLine
10
6
20
40.0625
11
6
21
41.125
0
ENDBLK
5
AA
330
A8
100
AcDbEntity
8
0
100
AcDbBlockEnd
0
BLOCK
5
AC
330
AB
100
AcDbEntity
8
0
100
AcDbBlockBegin
2
*D31
70
1
10
0
20
0
3
*D31
1

0
LINE
5
16B
100
AcDbEntity
8
Maße
6
CONTINUOUS
62
7
370
0
100
AcDbLine
10
0
20
-6
11
2.5
21
-6
0
SOLID
5
16C
100
AcDbEntity
8
Maße
6
CONTINUOUS
62
7
370
0
100
AcDbTrace
10
0
20
-6
30
0
11
0.3
21
-5.95004584107
31
0
12
0.3
22
-6.04995415893
32
0
13
0.3
23
-6.04995415893
33
0
0
SOLID
5
16D
100
AcDbEntity
8
Maße
6
CONTINUOUS
62
7
370
0
100
AcDbTrace
10
2.5
20
-6
30
0
11
2.2
21
-6.04995415893
31
0
12
2.2
22
-5.95004584107
32
0
13
2.2
23
-5.95004584107
33
0
0
MTEXT
5
16E
100
AcDbEntity
8
Maße
6
CONTINUOUS
62
7
370
0
100
AcDbMText
10
1.25
20
-5.7375
30
0
40
0.4
41
0.622222222222
71
5
72
1
1
2.5
7
standard
210
0
220
0
230
1
50
0
73
2
44
1
0
LINE
5
16F
100
AcDbEntity
8
Maße
6
CONTINUOUS
62
7
370
0
100
AcDbLine
10
-1.1481063742e-17
20
-4.0625
11
-2.2962127484e-17
21
-6.125
0
LINE
5
170
100
AcDbEntity
8
Maße
6
CONTINUOUS
62
7
370
0
100
AcDbLine
10
2.5
20
-4.0625
11
2.5
21
-6.125
0
ENDBLK
5
AD
330
AB
100
AcDbEntity
8
0
100
AcDbBlockEnd
0
BLOCK
5
AF
330
AE
100
AcDbEntity
8
0
100
AcDbBlockBegin
2
*D23
70
1
10
0
20
0
3
*D23
1

0
LINE
5
171
100
AcDbEntity
8
Maße
6
CONTINUOUS
62
7
370
0
100
AcDbLine
10
66.5
20
-5
11
65.5
21
-5
0
SOLID
5
172
100
AcDbEntity
8
Maße
6
CONTINUOUS
62
7
370
0
100
AcDbTrace
10
66.5
20
-5
30
0
11
66.2
21
-5.04995415893
31
0
12
66.2
22
-4.95004584107
32
0
13
66.2
23
-4.95004584107
33
0
0
SOLID
5
173
100
AcDbEntity
8
Maße
6
CONTINUOUS
62
7
370
0
100
AcDbTrace
10
65.5
20
-5
30
0
11
65.8
21
-4.95004584107
31
0
12
65.8
22
-5.04995415893
32
0
13
65.8
23
-5.04995415893
33
0
0
MTEXT
5
174
100
AcDbEntity
8
Maße
6
CONTINUOUS
62
7
370
0
100
AcDbMText
10
66
20
-4.7375
30
0
40
0.4
41
0.0888888888889
71
5
72
1
1
1
7
standard
210
0
220
0
230
1
50
360
73
2
44
1
0
LINE
5
175
100
AcDbEntity
8
Maße
6
CONTINUOUS
62
7
370
0
100
AcDbLine
10
66.5
20
-4.0625
11
66.5
21
-5.125
0
LINE
5
176
100
AcDbEntity
8
Maße
6
CONTINUOUS
62
7
370
0
100
AcDbLine
10
65.5
20
-4.0625
11
65.5
21
-5.125
0
ENDBLK
5
B0
330
AE
100
AcDbEntity
8
0
100
AcDbBlockEnd
0
ENDSEC
0
SECTION
2
ENTITIES
0
LINE
5
177
100
AcDbEntity
8
Grund Böschung
6
ByLayer
62
256
370
-1
100
AcDbLine
10
0
20
40
11
-10
21
40
0
LINE
5
178
100
AcDbEntity
8
Grund Böschung
6
ByLayer
62
256
370
-1
100
AcDbLine
10
-10
20
40
11
-10
21
0
0
CIRCLE
5
179
100
AcDbEntity
8
Baumbereich
6
ByLayer
62
256
370
-1
100
AcDbCircle
10
-5
20
34
40
4
0
CIRCLE
5
17A
100
AcDbEntity
8
Baumbereich
6
ByLayer
62
256
370
-1
100
AcDbCircle
10
-5
20
25
40
4
0
CIRCLE
5
17B
100
AcDbEntity
8
Baumbereich
6
ByLayer
62
256
370
-1
100
AcDbCircle
10
-5
20
15
40
4
0
LINE
5
17C
100
AcDbEntity
8
Grund Böschung
6
ByLayer
62
256
370
-1
100
AcDbLine
10
-10
20
-10
11
-14
21
-10
0
LINE
5
17D
100
AcDbEntity
8
Grund Böschung
6
ByLayer
62
256
370
-1
100
AcDbLine
10
-14
20
-10
11
-14
21
50
0
LINE
5
17E
100
AcDbEntity
8
Grund Böschung
6
ByLayer
62
256
370
-1
100
AcDbLine
10
-14
20
50
11
-10
21
50
0
LINE
5
17F
100
AcDbEntity
8
Grund Böschung
6
ByLayer
62
256
370
-1
100
AcDbLine
10
-10
20
50
11
-10
21
-10
0
LINE
5
180
100
AcDbEntity
8
Gemeinschaft
6
ByLayer
62
256
370
-1
100
AcDbLine
10
-2
20
30
11
2
21
30
0
LINE
5
181
100
AcDbEntity
8
Gemeinschaft
6
ByLayer
62
256
370
-1
100
AcDbLine
10
2
20
30
11
2
21
28
0
LINE
5
182
100
AcDbEntity
8
Gemeinschaft
6
ByLayer
62
256
370
-1
100
AcDbLine
10
2
20
28
11
-2
21
28
0
LINE
5
183
100
AcDbEntity
8
Gemeinschaft
6
ByLayer
62
256
370
-1
100
AcDbLine
10
-2
20
28
11
-2
21
30
0
LINE
5
184
100
AcDbEntity
8
Gemeinschaft
6
ByLayer
62
256
370
-1
100
AcDbLine
10
-10
20
42
11
0
21
37
0
LINE
5
185
100
AcDbEntity
8
Gemeinschaft
6
ByLayer
62
256
370
-1
100
AcDbLine
10
0
20
37
11
0
21
38
0
LINE
5
186
100
AcDbEntity
8
Gemeinschaft
6
ByLayer
62
256
370
-1
100
AcDbLine
10
0
20
38
11
-10
21
43
0
LINE
5
187
100
AcDbEntity
8
Gemeinschaft
6
ByLayer
62
256
370
-1
100
AcDbLine
10
-10
20
43
11
-10
21
42
0
MTEXT
5
188
100
AcDbEntity
8
Gemeinschaft
6
ByLayer
62
256
370
-1
100
AcDbMText
10
-1
20
29
30
0
40
0.4
41
2.4
71
1
72
1
1
Container
7
standard
210
0
220
0
230
1
50
0
73
2
44
1
0
MTEXT
5
189
100
AcDbEntity
8
Gemeinschaft
6
ByLayer
62
256
370
-1
100
AcDbMText
10
-6
20
40
30
0
40
0.4
41
2.13333374476
71
1
72
1
1
Fussweg
7
standard
210
0
220
0
230
1
50
0
73
2
44
1
0
MTEXT
5
18A
100
AcDbEntity
8
Gemeinschaft
6
ByLayer
62
256
370
-1
100
AcDbMText
10
1
20
25
30
0
40
0.8
41
8.31111152254
71
1
72
1
1
Vereinswiese:\PTreffpunkt,\PVersammlungen,\PFeuerstelle,\PGrillen,\PSpielen, \P...
7
standard
210
0
220
0
230
1
50
0
73
2
44
1
0
LINE
5
18B
100
AcDbEntity
8
Gemeinschaft
6
ByLayer
62
256
370
-1
100
AcDbLine
10
0
20
9
11
-10
21
9
0
LINE
5
18C
100
AcDbEntity
8
Gemeinschaft
6
ByLayer
62
256
370
-1
100
AcDbLine
10
-10
20
9
11
-10
21
7
0
LINE
5
18D
100
AcDbEntity
8
Gemeinschaft
6
ByLayer
62
256
370
-1
100
AcDbLine
10
-10
20
7
11
0
21
7
0
LINE
5
18E
100
AcDbEntity
8
Gemeinschaft
6
ByLayer
62
256
370
-1
100
AcDbLine
10
0
20
7
11
0
21
9
0
MTEXT
5
18F
100
AcDbEntity
8
Gemeinschaft
6
ByLayer
62
256
370
-1
100
AcDbMText
10
-9
20
8
30
0
40
0.4
41
7.08888888889
71
1
72
1
1
Fahrzeugzufahrt vom Weg
7
standard
210
0
220
0
230
1
50
0
73
2
44
1
0
LINE
5
190
100
AcDbEntity
8
Grund
6
ByLayer
62
256
370
-1
100
AcDbLine
10
0
20
40
11
0
21
-4
0
LINE
5
191
100
AcDbEntity
8
Beet/Feld
6
ByLayer
62
256
370
-1
100
AcDbLine
10
2.5
20
-1.5
11
2.5
21
6.5
0
LINE
5
192
100
AcDbEntity
8
Beet/Feld
6
ByLayer
62
256
370
-1
100
AcDbLine
10
10
20
26.5
11
10
21
9.5
0
DIMENSION
5
193
100
AcDbEntity
8
Maße
6
ByLayer
62
256
370
-1
100
AcDbDimension
2
*D1
10
6
20
41
30
0
11
3
21
41.2625
31
0
70
32
71
5
72
0
3
Standard
53
0
210
0
220
0
230
1
100
AcDbAlignedDimension
13
0
23
40
33
0
14
6
24
40
34
0
100
AcDbRotatedDimension
0
LINE
5
194
100
AcDbEntity
8
Beet/Feld
6
ByLayer
62
256
370
-1
100
AcDbLine
10
6
20
37.5
11
6
21
29.5
0
MTEXT
5
195
100
AcDbEntity
8
Gemeinschaft
6
ByLayer
62
256
370
-1
100
AcDbMText
10
1
20
39
30
0
40
0.4
41
4.04444465016
71
1
72
1
1
Fahrradständer
7
standard
210
0
220
0
230
1
50
0
73
2
44
1
0
DIMENSION
5
196
100
AcDbEntity
8
Maße
6
ByLayer
62
256
370
-1
100
AcDbDimension
2
*D2
10
68
20
42
30
0
11
34
21
42.2625
31
0
70
32
71
5
72
0
3
Standard
53
0
210
0
220
0
230
1
100
AcDbAlignedDimension
13
0
23
40
33
0
14
68
24
40
34
0
100
AcDbRotatedDimension
0
DIMENSION
5
197
100
AcDbEntity
8
Maße
6
ByLayer
62
256
370
-1
100
AcDbDimension
2
*D3
10
68
20
41
30
0
11
37
21
41.2625
31
0
70
32
71
5
72
0
3
Standard
53
0
210
0
220
0
230
1
100
AcDbAlignedDimension
13
6
23
40
33
0
14
68
24
40
34
0
100
AcDbRotatedDimension
0
LINE
5
198
100
AcDbEntity
8
Grund
6
ByLayer
62
256
370
-1
100
AcDbLine
10
68
20
40
11
0
21
40
0
LINE
5
199
100
AcDbEntity
8
Grund
6
ByLayer
62
256
370
-1
100
AcDbLine
10
0
20
-4
11
68
21
-4
0
LINE
5
19A
100
AcDbEntity
8
Grund
6
ByLayer
62
256
370
-1
100
AcDbLine
10
68
20
-4
11
68
21
40
0
LINE
5
19B
100
AcDbEntity
8
Beet/Feld
6
ByLayer
62
256
370
-1
100
AcDbLine
10
67.8
20
29.5
11
67.8
21
37.5
0
LINE
5
19C
100
AcDbEntity
8
Beet/Feld
6
ByLayer
62
256
370
-1
100
AcDbLine
10
67.8
20
37.5
11
6
21
37.5
0
LINE
5
19D
100
AcDbEntity
8
Beet/Feld
6
ByLayer
62
256
370
-1
100
AcDbLine
10
6
20
29.5
11
67.8
21
29.5
0
LINE
5
19E
100
AcDbEntity
8
Beet/Feld
6
ByLayer
62
256
370
-1
100
AcDbLine
10
65.5
20
9.5
11
65.5
21
26.5
0
LINE
5
19F
100
AcDbEntity
8
Beet/Feld
6
ByLayer
62
256
370
-1
100
AcDbLine
10
65.5
20
26.5
11
10
21
26.5
0
LINE
5
1A0
100
AcDbEntity
8
Beet/Feld
6
ByLayer
62
256
370
-1
100
AcDbLine
10
10
20
9.5
11
65.5
21
9.5
0
LINE
5
1A1
100
AcDbEntity
8
Beet/Feld
6
ByLayer
62
256
370
-1
100
AcDbLine
10
67.8
20
-1.5
11
2.5
21
-1.5
0
LINE
5
1A2
100
AcDbEntity
8
Beet/Feld
6
ByLayer
62
256
370
-1
100
AcDbLine
10
2.5
20
6.5
11
67.8
21
6.5
0
LINE
5
1A3
100
AcDbEntity
8
Beet/Feld
6
ByLayer
62
256
370
-1
100
AcDbLine
10
67.8
20
6.5
11
67.8
21
-1.5
0
LINE
5
1A4
100
AcDbEntity
8
Parzellen
6
ByLayer
62
256
370
-1
100
AcDbLine
10
65.5
20
26.5
11
63
21
26.5
0
LINE
5
1A5
100
AcDbEntity
8
Parzellen
6
ByLayer
62
256
370
-1
100
AcDbLine
10
63
20
26.5
11
63
21
18.5
0
LINE
5
1A6
100
AcDbEntity
8
Parzellen
6
ByLayer
62
256
370
-1
100
AcDbLine
10
63
20
18.5
11
65.5
21
18.5
0
LINE
5
1A7
100
AcDbEntity
8
Parzellen
6
ByLayer
62
256
370
-1
100
AcDbLine
10
65.5
20
18.5
11
65.5
21
26.5
0
LINE
5
1A8
100
AcDbEntity
8
Parzellen
6
ByLayer
62
256
370
-1
100
AcDbLine
10
65.5
20
17.5
11
63
21
17.5
0
LINE
5
1A9
100
AcDbEntity
8
Parzellen
6
ByLayer
62
256
370
-1
100
AcDbLine
10
63
20
17.5
11
63
21
9.5
0
LINE
5
1AA
100
AcDbEntity
8
Parzellen
6
ByLayer
62
256
370
-1
100
AcDbLine
10
63
20
9.5
11
65.5
21
9.5
0
LINE
5
1AB
100
AcDbEntity
8
Parzellen
6
ByLayer
62
256
370
-1
100
AcDbLine
10
65.5
20
9.5
11
65.5
21
17.5
0
LINE
5
1AC
100
AcDbEntity
8
Parzellen
6
ByLayer
62
256
370
-1
100
AcDbLine
10
62.5
20
26.5
11
60
21
26.5
0
LINE
5
1AD
100
AcDbEntity
8
Parzellen
6
ByLayer
62
256
370
-1
100
AcDbLine
10
60
20
26.5
11
60
21
18.5
0
LINE
5
1AE
100
AcDbEntity
8
Parzellen
6
ByLayer
62
256
370
-1
100
AcDbLine
10
60
20
18.5
11
62.5
21
18.5
0
LINE
5
1AF
100
AcDbEntity
8
Parzellen
6
ByLayer
62
256
370
-1
100
AcDbLine
10
62.5
20
18.5
11
62.5
21
26.5
0
LINE
5
1B0
100
AcDbEntity
8
Parzellen
6
ByLayer
62
256
370
-1
100
AcDbLine
10
62.5
20
17.5
11
60
21
17.5
0
LINE
5
1B1
100
AcDbEntity
8
Parzellen
6
ByLayer
62
256
370
-1
100
AcDbLine
10
60
20
17.5
11
60
21
9.5
0
LINE
5
1B2
100
AcDbEntity
8
Parzellen
6
ByLayer
62
256
370
-1
100
AcDbLine
10
60
20
9.5
11
62.5
21
9.5
0
LINE
5
1B3
100
AcDbEntity
8
Parzellen
6
ByLayer
62
256
370
-1
100
AcDbLine
10
62.5
20
9.5
11
62.5
21
17.5
0
LINE
5
1B4
100
AcDbEntity
8
Parzellen
6
ByLayer
62
256
370
-1
100
AcDbLine
10
59.5
20
26.5
11
57
21
26.5
0
LINE
5
1B5
100
AcDbEntity
8
Parzellen
6
ByLayer
62
256
370
-1
100
AcDbLine
10
57
20
26.5
11
57
21
18.5
0
LINE
5
1B6
100
AcDbEntity
8
Parzellen
6
ByLayer
62
256
370
-1
100
AcDbLine
10
57
20
18.5
11
59.5
21
18.5
0
LINE
5
1B7
100
AcDbEntity
8
Parzellen
6
ByLayer
62
256
370
-1
100
AcDbLine
10
59.5
20
18.5
11
59.5
21
26.5
0
LINE
5
1B8
100
AcDbEntity
8
Parzellen
6
ByLayer
62
256
370
-1
100
AcDbLine
10
59.5
20
17.5
11
57
21
17.5
0
LINE
5
1B9
100
AcDbEntity
8
Parzellen
6
ByLayer
62
256
370
-1
100
AcDbLine
10
57
20
17.5
11
57
21
9.5
0
LINE
5
1BA
100
AcDbEntity
8
Parzellen
6
ByLayer
62
256
370
-1
100
AcDbLine
10
57
20
9.5
11
59.5
21
9.5
0
LINE
5
1BB
100
AcDbEntity
8
Parzellen
6
ByLayer
62
256
370
-1
100
AcDbLine
10
59.5
20
9.5
11
59.5
21
17.5
0
LINE
5
1BC
100
AcDbEntity
8
Parzellen
6
ByLayer
62
256
370
-1
100
AcDbLine
10
56.5
20
26.5
11
54
21
26.5
0
LINE
5
1BD
100
AcDbEntity
8
Parzellen
6
ByLayer
62
256
370
-1
100
AcDbLine
10
54
20
26.5
11
54
21
18.5
0
LINE
5
1BE
100
AcDbEntity
8
Parzellen
6
ByLayer
62
256
370
-1
100
AcDbLine
10
54
20
18.5
11
56.5
21
18.5
0
LINE
5
1BF
100
AcDbEntity
8
Parzellen
6
ByLayer
62
256
370
-1
100
AcDbLine
10
56.5
20
18.5
11
56.5
21
26.5
0
LINE
5
1C0
100
AcDbEntity
8
Parzellen
6
ByLayer
62
256
370
-1
100
AcDbLine
10
56.5
20
17.5
11
54
21
17.5
0
LINE
5
1C1
100
AcDbEntity
8
Parzellen
6
ByLayer
62
256
370
-1
100
AcDbLine
10
54
20
17.5
11
54
21
9.5
0
LINE
5
1C2
100
AcDbEntity
8
Parzellen
6
ByLayer
62
256
370
-1
100
AcDbLine
10
54
20
9.5
11
56.5
21
9.5
0
LINE
5
1C3
100
AcDbEntity
8
Parzellen
6
ByLayer
62
256
370
-1
100
AcDbLine
10
56.5
20
9.5
11
56.5
21
17.5
0
LINE
5
1C4
100
AcDbEntity
8
Parzellen
6
ByLayer
62
256
370
-1
100
AcDbLine
10
53.5
20
26.5
11
51
21
26.5
0
LINE
5
1C5
100
AcDbEntity
8
Parzellen
6
ByLayer
62
256
370
-1
100
AcDbLine
10
51
20
26.5
11
51
21
18.5
0
LINE
5
1C6
100
AcDbEntity
8
Parzellen
6
ByLayer
62
256
370
-1
100
AcDbLine
10
51
20
18.5
11
53.5
21
18.5
0
LINE
5
1C7
100
AcDbEntity
8
Parzellen
6
ByLayer
62
256
370
-1
100
AcDbLine
10
53.5
20
18.5
11
53.5
21
26.5
0
LINE
5
1C8
100
AcDbEntity
8
Parzellen
6
ByLayer
62
256
370
-1
100
AcDbLine
10
53.5
20
17.5
11
51
21
17.5
0
LINE
5
1C9
100
AcDbEntity
8
Parzellen
6
ByLayer
62
256
370
-1
100
AcDbLine
10
51
20
17.5
11
51
21
9.5
0
LINE
5
1CA
100
AcDbEntity
8
Parzellen
6
ByLayer
62
256
370
-1
100
AcDbLine
10
51
20
9.5
11
53.5
21
9.5
0
LINE
5
1CB
100
AcDbEntity
8
Parzellen
6
ByLayer
62
256
370
-1
100
AcDbLine
10
53.5
20
9.5
11
53.5
21
17.5
0
LINE
5
1CC
100
AcDbEntity
8
Parzellen
6
ByLayer
62
256
370
-1
100
AcDbLine
10
50.5
20
26.5
11
48
21
26.5
0
LINE
5
1CD
100
AcDbEntity
8
Parzellen
6
ByLayer
62
256
370
-1
100
AcDbLine
10
48
20
26.5
11
48
21
18.5
0
LINE
5
1CE
100
AcDbEntity
8
Parzellen
6
ByLayer
62
256
370
-1
100
AcDbLine
10
48
20
18.5
11
50.5
21
18.5
0
LINE
5
1CF
100
AcDbEntity
8
Parzellen
6
ByLayer
62
256
370
-1
100
AcDbLine
10
50.5
20
18.5
11
50.5
21
26.5
0
LINE
5
1D0
100
AcDbEntity
8
Parzellen
6
ByLayer
62
256
370
-1
100
AcDbLine
10
50.5
20
17.5
11
48
21
17.5
0
LINE
5
1D1
100
AcDbEntity
8
Parzellen
6
ByLayer
62
256
370
-1
100
AcDbLine
10
48
20
17.5
11
48
21
9.5
0
LINE
5
1D2
100
AcDbEntity
8
Parzellen
6
ByLayer
62
256
370
-1
100
AcDbLine
10
48
20
9.5
11
50.5
21
9.5
0
LINE
5
1D3
100
AcDbEntity
8
Parzellen
6
ByLayer
62
256
370
-1
100
AcDbLine
10
50.5
20
9.5
11
50.5
21
17.5
0
LINE
5
1D4
100
AcDbEntity
8
Parzellen
6
ByLayer
62
256
370
-1
100
AcDbLine
10
47.5
20
26.5
11
45
21
26.5
0
LINE
5
1D5
100
AcDbEntity
8
Parzellen
6
ByLayer
62
256
370
-1
100
AcDbLine
10
45
20
26.5
11
45
21
18.5
0
LINE
5
1D6
100
AcDbEntity
8
Parzellen
6
ByLayer
62
256
370
-1
100
AcDbLine
10
45
20
18.5
11
47.5
21
18.5
0
LINE
5
1D7
100
AcDbEntity
8
Parzellen
6
ByLayer
62
256
370
-1
100
AcDbLine
10
47.5
20
18.5
11
47.5
21
26.5
0
LINE
5
1D8
100
AcDbEntity
8
Parzellen
6
ByLayer
62
256
370
-1
100
AcDbLine
10
47.5
20
17.5
11
45
21
17.5
0
LINE
5
1D9
100
AcDbEntity
8
Parzellen
6
ByLayer
62
256
370
-1
100
AcDbLine
10
45
20
17.5
11
45
21
9.5
0
LINE
5
1DA
100
AcDbEntity
8
Parzellen
6
ByLayer
62
256
370
-1
100
AcDbLine
10
45
20
9.5
11
47.5
21
9.5
0
LINE
5
1DB
100
AcDbEntity
8
Parzellen
6
ByLayer
62
256
370
-1
100
AcDbLine
10
47.5
20
9.5
11
47.5
21
17.5
0
LINE
5
1DC
100
AcDbEntity
8
Parzellen
6
ByLayer
62
256
370
-1
100
AcDbLine
10
44.5
20
26.5
11
42
21
26.5
0
LINE
5
1DD
100
AcDbEntity
8
Parzellen
6
ByLayer
62
256
370
-1
100
AcDbLine
10
42
20
26.5
11
42
21
18.5
0
LINE
5
1DE
100
AcDbEntity
8
Parzellen
6
ByLayer
62
256
370
-1
100
AcDbLine
10
42
20
18.5
11
44.5
21
18.5
0
LINE
5
1DF
100
AcDbEntity
8
Parzellen
6
ByLayer
62
256
370
-1
100
AcDbLine
10
44.5
20
18.5
11
44.5
21
26.5
0
LINE
5
1E0
100
AcDbEntity
8
Parzellen
6
ByLayer
62
256
370
-1
100
AcDbLine
10
44.5
20
17.5
11
42
21
17.5
0
LINE
5
1E1
100
AcDbEntity
8
Parzellen
6
ByLayer
62
256
370
-1
100
AcDbLine
10
42
20
17.5
11
42
21
9.5
0
LINE
5
1E2
100
AcDbEntity
8
Parzellen
6
ByLayer
62
256
370
-1
100
AcDbLine
10
42
20
9.5
11
44.5
21
9.5
0
LINE
5
1E3
100
AcDbEntity
8
Parzellen
6
ByLayer
62
256
370
-1
100
AcDbLine
10
44.5
20
9.5
11
44.5
21
17.5
0
LINE
5
1E4
100
AcDbEntity
8
Parzellen
6
ByLayer
62
256
370
-1
100
AcDbLine
10
41.5
20
26.5
11
39
21
26.5
0
LINE
5
1E5
100
AcDbEntity
8
Parzellen
6
ByLayer
62
256
370
-1
100
AcDbLine
10
39
20
26.5
11
39
21
18.5
0
LINE
5
1E6
100
AcDbEntity
8
Parzellen
6
ByLayer
62
256
370
-1
100
AcDbLine
10
39
20
18.5
11
41.5
21
18.5
0
LINE
5
1E7
100
AcDbEntity
8
Parzellen
6
ByLayer
62
256
370
-1
100
AcDbLine
10
41.5
20
18.5
11
41.5
21
26.5
0
LINE
5
1E8
100
AcDbEntity
8
Parzellen
6
ByLayer
62
256
370
-1
100
AcDbLine
10
41.5
20
17.5
11
39
21
17.5
0
LINE
5
1E9
100
AcDbEntity
8
Parzellen
6
ByLayer
62
256
370
-1
100
AcDbLine
10
39
20
17.5
11
39
21
9.5
0
LINE
5
1EA
100
AcDbEntity
8
Parzellen
6
ByLayer
62
256
370
-1
100
AcDbLine
10
39
20
9.5
11
41.5
21
9.5
0
LINE
5
1EB
100
AcDbEntity
8
Parzellen
6
ByLayer
62
256
370
-1
100
AcDbLine
10
41.5
20
9.5
11
41.5
21
17.5
0
LINE
5
1EC
100
AcDbEntity
8
Parzellen
6
ByLayer
62
256
370
-1
100
AcDbLine
10
38.5
20
26.5
11
36
21
26.5
0
LINE
5
1ED
100
AcDbEntity
8
Parzellen
6
ByLayer
62
256
370
-1
100
AcDbLine
10
36
20
26.5
11
36
21
18.5
0
LINE
5
1EE
100
AcDbEntity
8
Parzellen
6
ByLayer
62
256
370
-1
100
AcDbLine
10
36
20
18.5
11
38.5
21
18.5
0
LINE
5
1EF
100
AcDbEntity
8
Parzellen
6
ByLayer
62
256
370
-1
100
AcDbLine
10
38.5
20
18.5
11
38.5
21
26.5
0
LINE
5
1F0
100
AcDbEntity
8
Parzellen
6
ByLayer
62
256
370
-1
100
AcDbLine
10
38.5
20
17.5
11
36
21
17.5
0
LINE
5
1F1
100
AcDbEntity
8
Parzellen
6
ByLayer
62
256
370
-1
100
AcDbLine
10
36
20
17.5
11
36
21
9.5
0
LINE
5
1F2
100
AcDbEntity
8
Parzellen
6
ByLayer
62
256
370
-1
100
AcDbLine
10
36
20
9.5
11
38.5
21
9.5
0
LINE
5
1F3
100
AcDbEntity
8
Parzellen
6
ByLayer
62
256
370
-1
100
AcDbLine
10
38.5
20
9.5
11
38.5
21
17.5
0
LINE
5
1F4
100
AcDbEntity
8
Parzellen
6
ByLayer
62
256
370
-1
100
AcDbLine
10
35.5
20
26.5
11
33
21
26.5
0
LINE
5
1F5
100
AcDbEntity
8
Parzellen
6
ByLayer
62
256
370
-1
100
AcDbLine
10
33
20
26.5
11
33
21
18.5
0
LINE
5
1F6
100
AcDbEntity
8
Parzellen
6
ByLayer
62
256
370
-1
100
AcDbLine
10
33
20
18.5
11
35.5
21
18.5
0
LINE
5
1F7
100
AcDbEntity
8
Parzellen
6
ByLayer
62
256
370
-1
100
AcDbLine
10
35.5
20
18.5
11
35.5
21
26.5
0
LINE
5
1F8
100
AcDbEntity
8
Parzellen
6
ByLayer
62
256
370
-1
100
AcDbLine
10
35.5
20
17.5
11
33
21
17.5
0
LINE
5
1F9
100
AcDbEntity
8
Parzellen
6
ByLayer
62
256
370
-1
100
AcDbLine
10
33
20
17.5
11
33
21
9.5
0
LINE
5
1FA
100
AcDbEntity
8
Parzellen
6
ByLayer
62
256
370
-1
100
AcDbLine
10
33
20
9.5
11
35.5
21
9.5
0
LINE
5
1FB
100
AcDbEntity
8
Parzellen
6
ByLayer
62
256
370
-1
100
AcDbLine
10
35.5
20
9.5
11
35.5
21
17.5
0
LINE
5
1FC
100
AcDbEntity
8
Parzellen
6
ByLayer
62
256
370
-1
100
AcDbLine
10
32.5
20
26.5
11
30
21
26.5
0
LINE
5
1FD
100
AcDbEntity
8
Parzellen
6
ByLayer
62
256
370
-1
100
AcDbLine
10
30
20
26.5
11
30
21
18.5
0
LINE
5
1FE
100
AcDbEntity
8
Parzellen
6
ByLayer
62
256
370
-1
100
AcDbLine
10
30
20
18.5
11
32.5
21
18.5
0
LINE
5
1FF
100
AcDbEntity
8
Parzellen
6
ByLayer
62
256
370
-1
100
AcDbLine
10
32.5
20
18.5
11
32.5
21
26.5
0
LINE
5
200
100
AcDbEntity
8
Parzellen
6
ByLayer
62
256
370
-1
100
AcDbLine
10
32.5
20
17.5
11
30
21
17.5
0
LINE
5
201
100
AcDbEntity
8
Parzellen
6
ByLayer
62
256
370
-1
100
AcDbLine
10
30
20
17.5
11
30
21
9.5
0
LINE
5
202
100
AcDbEntity
8
Parzellen
6
ByLayer
62
256
370
-1
100
AcDbLine
10
30
20
9.5
11
32.5
21
9.5
0
LINE
5
203
100
AcDbEntity
8
Parzellen
6
ByLayer
62
256
370
-1
100
AcDbLine
10
32.5
20
9.5
11
32.5
21
17.5
0
LINE
5
204
100
AcDbEntity
8
Parzellen
6
ByLayer
62
256
370
-1
100
AcDbLine
10
29.5
20
26.5
11
27
21
26.5
0
LINE
5
205
100
AcDbEntity
8
Parzellen
6
ByLayer
62
256
370
-1
100
AcDbLine
10
27
20
26.5
11
27
21
18.5
0
LINE
5
206
100
AcDbEntity
8
Parzellen
6
ByLayer
62
256
370
-1
100
AcDbLine
10
27
20
18.5
11
29.5
21
18.5
0
LINE
5
207
100
AcDbEntity
8
Parzellen
6
ByLayer
62
256
370
-1
100
AcDbLine
10
29.5
20
18.5
11
29.5
21
26.5
0
LINE
5
208
100
AcDbEntity
8
Parzellen
6
ByLayer
62
256
370
-1
100
AcDbLine
10
29.5
20
17.5
11
27
21
17.5
0
LINE
5
209
100
AcDbEntity
8
Parzellen
6
ByLayer
62
256
370
-1
100
AcDbLine
10
27
20
17.5
11
27
21
9.5
0
LINE
5
20A
100
AcDbEntity
8
Parzellen
6
ByLayer
62
256
370
-1
100
AcDbLine
10
27
20
9.5
11
29.5
21
9.5
0
LINE
5
20B
100
AcDbEntity
8
Parzellen
6
ByLayer
62
256
370
-1
100
AcDbLine
10
29.5
20
9.5
11
29.5
21
17.5
0
LINE
5
20C
100
AcDbEntity
8
Parzellen
6
ByLayer
62
256
370
-1
100
AcDbLine
10
26.5
20
26.5
11
24
21
26.5
0
LINE
5
20D
100
AcDbEntity
8
Parzellen
6
ByLayer
62
256
370
-1
100
AcDbLine
10
24
20
26.5
11
24
21
18.5
0
LINE
5
20E
100
AcDbEntity
8
Parzellen
6
ByLayer
62
256
370
-1
100
AcDbLine
10
24
20
18.5
11
26.5
21
18.5
0
LINE
5
20F
100
AcDbEntity
8
Parzellen
6
ByLayer
62
256
370
-1
100
AcDbLine
10
26.5
20
18.5
11
26.5
21
26.5
0
LINE
5
210
100
AcDbEntity
8
Parzellen
6
ByLayer
62
256
370
-1
100
AcDbLine
10
26.5
20
17.5
11
24
21
17.5
0
LINE
5
211
100
AcDbEntity
8
Parzellen
6
ByLayer
62
256
370
-1
100
AcDbLine
10
24
20
17.5
11
24
21
9.5
0
LINE
5
212
100
AcDbEntity
8
Parzellen
6
ByLayer
62
256
370
-1
100
AcDbLine
10
24
20
9.5
11
26.5
21
9.5
0
LINE
5
213
100
AcDbEntity
8
Parzellen
6
ByLayer
62
256
370
-1
100
AcDbLine
10
26.5
20
9.5
11
26.5
21
17.5
0
LINE
5
214
100
AcDbEntity
8
Parzellen
6
ByLayer
62
256
370
-1
100
AcDbLine
10
23.5
20
26.5
11
21
21
26.5
0
LINE
5
215
100
AcDbEntity
8
Parzellen
6
ByLayer
62
256
370
-1
100
AcDbLine
10
21
20
26.5
11
21
21
18.5
0
LINE
5
216
100
AcDbEntity
8
Parzellen
6
ByLayer
62
256
370
-1
100
AcDbLine
10
21
20
18.5
11
23.5
21
18.5
0
LINE
5
217
100
AcDbEntity
8
Parzellen
6
ByLayer
62
256
370
-1
100
AcDbLine
10
23.5
20
18.5
11
23.5
21
26.5
0
LINE
5
218
100
AcDbEntity
8
Parzellen
6
ByLayer
62
256
370
-1
100
AcDbLine
10
23.5
20
17.5
11
21
21
17.5
0
LINE
5
219
100
AcDbEntity
8
Parzellen
6
ByLayer
62
256
370
-1
100
AcDbLine
10
21
20
17.5
11
21
21
9.5
0
LINE
5
21A
100
AcDbEntity
8
Parzellen
6
ByLayer
62
256
370
-1
100
AcDbLine
10
21
20
9.5
11
23.5
21
9.5
0
LINE
5
21B
100
AcDbEntity
8
Parzellen
6
ByLayer
62
256
370
-1
100
AcDbLine
10
23.5
20
9.5
11
23.5
21
17.5
0
LINE
5
21C
100
AcDbEntity
8
Parzellen
6
ByLayer
62
256
370
-1
100
AcDbLine
10
20.5
20
26.5
11
18
21
26.5
0
LINE
5
21D
100
AcDbEntity
8
Parzellen
6
ByLayer
62
256
370
-1
100
AcDbLine
10
18
20
26.5
11
18
21
18.5
0
LINE
5
21E
100
AcDbEntity
8
Parzellen
6
ByLayer
62
256
370
-1
100
AcDbLine
10
18
20
18.5
11
20.5
21
18.5
0
LINE
5
21F
100
AcDbEntity
8
Parzellen
6
ByLayer
62
256
370
-1
100
AcDbLine
10
20.5
20
18.5
11
20.5
21
26.5
0
LINE
5
220
100
AcDbEntity
8
Parzellen
6
ByLayer
62
256
370
-1
100
AcDbLine
10
20.5
20
17.5
11
18
21
17.5
0
LINE
5
221
100
AcDbEntity
8
Parzellen
6
ByLayer
62
256
370
-1
100
AcDbLine
10
18
20
17.5
11
18
21
9.5
0
LINE
5
222
100
AcDbEntity
8
Parzellen
6
ByLayer
62
256
370
-1
100
AcDbLine
10
18
20
9.5
11
20.5
21
9.5
0
LINE
5
223
100
AcDbEntity
8
Parzellen
6
ByLayer
62
256
370
-1
100
AcDbLine
10
20.5
20
9.5
11
20.5
21
17.5
0
LINE
5
224
100
AcDbEntity
8
Gemeinschaft
6
ByLayer
62
256
370
-1
100
AcDbLine
10
16
20
26
11
11
21
26
0
LINE
5
225
100
AcDbEntity
8
Gemeinschaft
6
ByLayer
62
256
370
-1
100
AcDbLine
10
11
20
26
11
11
21
24
0
LINE
5
226
100
AcDbEntity
8
Gemeinschaft
6
ByLayer
62
256
370
-1
100
AcDbLine
10
11
20
24
11
16
21
24
0
LINE
5
227
100
AcDbEntity
8
Gemeinschaft
6
ByLayer
62
256
370
-1
100
AcDbLine
10
16
20
24
11
16
21
26
0
LINE
5
228
100
AcDbEntity
8
Gemeinschaft
6
ByLayer
62
256
370
-1
100
AcDbLine
10
16
20
11
11
16
21
10
0
LINE
5
229
100
AcDbEntity
8
Gemeinschaft
6
ByLayer
62
256
370
-1
100
AcDbLine
10
16
20
10
11
17
21
10
0
LINE
5
22A
100
AcDbEntity
8
Gemeinschaft
6
ByLayer
62
256
370
-1
100
AcDbLine
10
17
20
10
11
17
21
11
0
LINE
5
22B
100
AcDbEntity
8
Gemeinschaft
6
ByLayer
62
256
370
-1
100
AcDbLine
10
17
20
11
11
16
21
11
0
MTEXT
5
22C
100
AcDbEntity
8
Gemeinschaft
6
ByLayer
62
256
370
-1
100
AcDbMText
10
16
20
10
30
0
40
0.4
41
1.8666670781
71
1
72
1
1
Wasser
7
standard
210
0
220
0
230
1
50
0
73
2
44
1
0
MTEXT
5
22D
100
AcDbEntity
8
Gemeinschaft
6
ByLayer
62
256
370
-1
100
AcDbMText
10
12.4
20
25.6
30
0
40
0.4
41
2.44444465016
71
1
72
1
1
Kompost-\Pbereich
7
standard
210
0
220
0
230
1
50
0
73
2
44
1
0
MTEXT
5
22E
100
AcDbEntity
8
Gemeinschaft
6
ByLayer
62
256
370
-1
100
AcDbMText
10
13
20
34
30
0
40
0.7
41
21.6416677467
71
1
72
1
1
Gemeinschaftsfeld für verschiedene Projekte
7
standard
210
0
220
0
230
1
50
0
73
2
44
1
0
MTEXT
5
22F
100
AcDbEntity
8
Gemeinschaft
6
ByLayer
62
256
370
-1
100
AcDbMText
10
8
20
3
30
0
40
0.7
41
21.6416677467
71
1
72
1
1
Gemeinschaftsfeld für verschiedene Projekte
7
standard
210
0
220
0
230
1
50
0
73
2
44
1
0
MTEXT
5
230
100
AcDbEntity
8
Gemeinschaft
6
ByLayer
62
256
370
-1
100
AcDbMText
10
11
20
18
30
0
40
0.4
41
4.93333374476
71
1
72
1
1
Gemeinschaftsbeet \Pfür verschiedene \Pkleinere Projekte
7
standard
210
0
220
0
230
1
50
0
73
2
44
1
0
LINE
5
231
100
AcDbEntity
8
Sträucher
6
ByLayer
62
256
370
-1
100
AcDbLine
10
6
20
39.5
11
67.8
21
39.5
0
LINE
5
232
100
AcDbEntity
8
Sträucher
6
ByLayer
62
256
370
-1
100
AcDbLine
10
67.8
20
39.5
11
67.8
21
38.5
0
LINE
5
233
100
AcDbEntity
8
Sträucher
6
ByLayer
62
256
370
-1
100
AcDbLine
10
67.8
20
38.5
11
6
21
38.5
0
LINE
5
234
100
AcDbEntity
8
Sträucher
6
ByLayer
62
256
370
-1
100
AcDbLine
10
6
20
38.5
11
6
21
39.5
0
LINE
5
235
100
AcDbEntity
8
Sträucher
6
ByLayer
62
256
370
-1
100
AcDbLine
10
67.8
20
-3.5
11
0.2
21
-3.5
0
LINE
5
236
100
AcDbEntity
8
Sträucher
6
ByLayer
62
256
370
-1
100
AcDbLine
10
0.2
20
-3.5
11
0.2
21
-2.5
0
LINE
5
237
100
AcDbEntity
8
Sträucher
6
ByLayer
62
256
370
-1
100
AcDbLine
10
0.2
20
-2.5
11
67.8
21
-2.5
0
LINE
5
238
100
AcDbEntity
8
Sträucher
6
ByLayer
62
256
370
-1
100
AcDbLine
10
67.8
20
-2.5
11
67.8
21
-3.5
0
LINE
5
239
100
AcDbEntity
8
Sträucher
6
ByLayer
62
256
370
-1
100
AcDbLine
10
66.5
20
26.5
11
67.5
21
26.5
0
LINE
5
23A
100
AcDbEntity
8
Sträucher
6
ByLayer
62
256
370
-1
100
AcDbLine
10
67.5
20
26.5
11
67.5
21
9.5
0
LINE
5
23B
100
AcDbEntity
8
Sträucher
6
ByLayer
62
256
370
-1
100
AcDbLine
10
67.5
20
9.5
11
66.5
21
9.5
0
LINE
5
23C
100
AcDbEntity
8
Sträucher
6
ByLayer
62
256
370
-1
100
AcDbLine
10
66.5
20
9.5
11
66.5
21
26.5
0
LINE
5
23D
100
AcDbEntity
8
Sträucher
6
ByLayer
62
256
370
-1
100
AcDbLine
10
0.2
20
-2.5
11
1.5
21
-2.5
0
LINE
5
23E
100
AcDbEntity
8
Sträucher
6
ByLayer
62
256
370
-1
100
AcDbLine
10
1.5
20
-2.5
11
1.5
21
6.5
0
LINE
5
23F
100
AcDbEntity
8
Sträucher
6
ByLayer
62
256
370
-1
100
AcDbLine
10
1.5
20
6.5
11
0.2
21
6.5
0
LINE
5
240
100
AcDbEntity
8
Sträucher
6
ByLayer
62
256
370
-1
100
AcDbLine
10
0.2
20
6.5
11
0.2
21
-2.5
0
DIMENSION
5
241
100
AcDbEntity
8
Maße
6
ByLayer
62
256
370
-1
100
AcDbDimension
2
*D4
10
71
20
40
30
0
11
70.7375
21
18
31
0
70
32
71
5
72
0
3
Standard
53
0
210
0
220
0
230
1
100
AcDbAlignedDimension
13
68
23
-4
33
0
14
68
24
40
34
0
50
90
100
AcDbRotatedDimension
0
DIMENSION
5
242
100
AcDbEntity
8
Maße
6
ByLayer
62
256
370
-1
100
AcDbDimension
2
*D5
10
70
20
-1.5
30
0
11
69.7375
21
-2.75
31
0
70
32
71
5
72
0
3
Standard
53
0
210
0
220
0
230
1
100
AcDbAlignedDimension
13
68
23
-4
33
0
14
68
24
-1.5
34
0
50
90
100
AcDbRotatedDimension
0
DIMENSION
5
243
100
AcDbEntity
8
Maße
6
ByLayer
62
256
370
-1
100
AcDbDimension
2
*D6
10
70
20
6.5
30
0
11
69.7375
21
2.5
31
0
70
32
71
5
72
0
3
Standard
53
0
210
0
220
0
230
1
100
AcDbAlignedDimension
13
68
23
-1.5
33
0
14
68
24
6.5
34
0
50
90
100
AcDbRotatedDimension
0
DIMENSION
5
244
100
AcDbEntity
8
Maße
6
ByLayer
62
256
370
-1
100
AcDbDimension
2
*D7
10
70
20
9.5
30
0
11
69.7375
21
8
31
0
70
32
71
5
72
0
3
Standard
53
0
210
0
220
0
230
1
100
AcDbAlignedDimension
13
68
23
6.5
33
0
14
68
24
9.5
34
0
50
90
100
AcDbRotatedDimension
0
DIMENSION
5
245
100
AcDbEntity
8
Maße
6
ByLayer
62
256
370
-1
100
AcDbDimension
2
*D8
10
70
20
26.5
30
0
11
69.7375
21
18
31
0
70
32
71
5
72
0
3
Standard
53
0
210
0
220
0
230
1
100
AcDbAlignedDimension
13
68
23
9.5
33
0
14
68
24
26.5
34
0
50
90
100
AcDbRotatedDimension
0
DIMENSION
5
246
100
AcDbEntity
8
Maße
6
ByLayer
62
256
370
-1
100
AcDbDimension
2
*D9
10
70
20
29.5
30
0
11
69.7375
21
28
31
0
70
32
71
5
72
0
3
Standard
53
0
210
0
220
0
230
1
100
AcDbAlignedDimension
13
68
23
26.5
33
0
14
68
24
29.5
34
0
50
90
100
AcDbRotatedDimension
0
DIMENSION
5
247
100
AcDbEntity
8
Maße
6
ByLayer
62
256
370
-1
100
AcDbDimension
2
*D10
10
70
20
37.5
30
0
11
69.7375
21
33.5
31
0
70
32
71
5
72
0
3
Standard
53
0
210
0
220
0
230
1
100
AcDbAlignedDimension
13
68
23
29.5
33
0
14
68
24
37.5
34
0
50
90
100
AcDbRotatedDimension
0
DIMENSION
5
248
100
AcDbEntity
8
Maße
6
ByLayer
62
256
370
-1
100
AcDbDimension
2
*D11
10
70
20
37.5
30
0
11
69.7375
21
38.75
31
0
70
32
71
5
72
0
3
Standard
53
0
210
0
220
0
230
1
100
AcDbAlignedDimension
13
68
23
40
33
0
14
68
24
37.5
34
0
50
90
100
AcDbRotatedDimension
0
DIMENSION
5
249
100
AcDbEntity
8
Maße
6
ByLayer
62
256
370
-1
100
AcDbDimension
2
*D12
10
69
20
-3.5
30
0
11
68.7375
21
-3.75
31
0
70
32
71
5
72
0
3
Standard
53
0
210
0
220
0
230
1
100
AcDbAlignedDimension
13
68
23
-4
33
0
14
68
24
-3.5
34
0
50
90
100
AcDbRotatedDimension
0
DIMENSION
5
24A
100
AcDbEntity
8
Maße
6
ByLayer
62
256
370
-1
100
AcDbDimension
2
*D13
10
69
20
-2.5
30
0
11
68.7375
21
-3
31
0
70
32
71
5
72
0
3
Standard
53
0
210
0
220
0
230
1
100
AcDbAlignedDimension
13
68
23
-3.5
33
0
14
68
24
-2.5
34
0
50
90
100
AcDbRotatedDimension
0
DIMENSION
5
24B
100
AcDbEntity
8
Maße
6
ByLayer
62
256
370
-1
100
AcDbDimension
2
*D14
10
69
20
-1.5
30
0
11
68.7375
21
-2
31
0
70
32
71
5
72
0
3
Standard
53
0
210
0
220
0
230
1
100
AcDbAlignedDimension
13
68
23
-2.5
33
0
14
68
24
-1.5
34
0
50
90
100
AcDbRotatedDimension
0
DIMENSION
5
24C
100
AcDbEntity
8
Maße
6
ByLayer
62
256
370
-1
100
AcDbDimension
2
*D15
10
69
20
17.5
30
0
11
68.7375
21
13.5
31
0
70
32
71
5
72
0
3
Standard
53
0
210
0
220
0
230
1
100
AcDbAlignedDimension
13
68
23
9.5
33
0
14
68
24
17.5
34
0
50
90
100
AcDbRotatedDimension
0
DIMENSION
5
24D
100
AcDbEntity
8
Maße
6
ByLayer
62
256
370
-1
100
AcDbDimension
2
*D16
10
69
20
18.5
30
0
11
68.7375
21
18
31
0
70
32
71
5
72
0
3
Standard
53
0
210
0
220
0
230
1
100
AcDbAlignedDimension
13
68
23
17.5
33
0
14
68
24
18.5
34
0
50
90
100
AcDbRotatedDimension
0
DIMENSION
5
24E
100
AcDbEntity
8
Maße
6
ByLayer
62
256
370
-1
100
AcDbDimension
2
*D17
10
69
20
26.5
30
0
11
68.7375
21
22.5
31
0
70
32
71
5
72
0
3
Standard
53
0
210
0
220
0
230
1
100
AcDbAlignedDimension
13
68
23
18.5
33
0
14
68
24
26.5
34
0
50
90
100
AcDbRotatedDimension
0
DIMENSION
5
24F
100
AcDbEntity
8
Maße
6
ByLayer
62
256
370
-1
100
AcDbDimension
2
*D18
10
69
20
38.5
30
0
11
68.7375
21
38
31
0
70
32
71
5
72
0
3
Standard
53
0
210
0
220
0
230
1
100
AcDbAlignedDimension
13
68
23
37.5
33
0
14
68
24
38.5
34
0
50
90
100
AcDbRotatedDimension
0
DIMENSION
5
250
100
AcDbEntity
8
Maße
6
ByLayer
62
256
370
-1
100
AcDbDimension
2
*D19
10
69
20
39.5
30
0
11
68.7375
21
39
31
0
70
32
71
5
72
0
3
Standard
53
0
210
0
220
0
230
1
100
AcDbAlignedDimension
13
68
23
38.5
33
0
14
68
24
39.5
34
0
50
90
100
AcDbRotatedDimension
0
DIMENSION
5
251
100
AcDbEntity
8
Maße
6
ByLayer
62
256
370
-1
100
AcDbDimension
2
*D20
10
65.5
20
-6
30
0
11
66.75
21
-5.7375
31
0
70
32
71
5
72
0
3
Standard
53
0
210
0
220
0
230
1
100
AcDbAlignedDimension
13
68
23
-4
33
0
14
65.5
24
-4
34
0
100
AcDbRotatedDimension
0
DIMENSION
5
252
100
AcDbEntity
8
Maße
6
ByLayer
62
256
370
-1
100
AcDbDimension
2
*D21
10
67.5
20
-5
30
0
11
67.75
21
-4.7375
31
0
70
32
71
5
72
0
3
Standard
53
0
210
0
220
0
230
1
100
AcDbAlignedDimension
13
68
23
-4
33
0
14
67.5
24
-4
34
0
100
AcDbRotatedDimension
0
DIMENSION
5
253
100
AcDbEntity
8
Maße
6
ByLayer
62
256
370
-1
100
AcDbDimension
2
*D22
10
66.5
20
-5
30
0
11
67
21
-4.7375
31
0
70
32
71
5
72
0
3
Standard
53
0
210
0
220
0
230
1
100
AcDbAlignedDimension
13
67.5
23
-4
33
0
14
66.5
24
-4
34
0
100
AcDbRotatedDimension
0
DIMENSION
5
254
100
AcDbEntity
8
Maße
6
ByLayer
62
256
370
-1
100
AcDbDimension
2
*D23
10
65.5
20
-5
30
0
11
66
21
-4.7375
31
0
70
32
71
5
72
0
3
Standard
53
0
210
0
220
0
230
1
100
AcDbAlignedDimension
13
66.5
23
-4
33
0
14
65.5
24
-4
34
0
100
AcDbRotatedDimension
0
DIMENSION
5
255
100
AcDbEntity
8
Maße
6
ByLayer
62
256
370
-1
100
AcDbDimension
2
*D24
10
63
20
-5
30
0
11
64.25
21
-4.7375
31
0
70
32
71
5
72
0
3
Standard
53
0
210
0
220
0
230
1
100
AcDbAlignedDimension
13
65.5
23
-4
33
0
14
63
24
-4
34
0
100
AcDbRotatedDimension
0
DIMENSION
5
256
100
AcDbEntity
8
Maße
6
ByLayer
62
256
370
-1
100
AcDbDimension
2
*D25
10
62.5
20
-5
30
0
11
62.75
21
-4.7375
31
0
70
32
71
5
72
0
3
Standard
53
0
210
0
220
0
230
1
100
AcDbAlignedDimension
13
63
23
-4
33
0
14
62.5
24
-4
34
0
100
AcDbRotatedDimension
0
DIMENSION
5
257
100
AcDbEntity
8
Maße
6
ByLayer
62
256
370
-1
100
AcDbDimension
2
*D26
10
60
20
-5
30
0
11
61.25
21
-4.7375
31
0
70
32
71
5
72
0
3
Standard
53
0
210
0
220
0
230
1
100
AcDbAlignedDimension
13
62.5
23
-4
33
0
14
60
24
-4
34
0
100
AcDbRotatedDimension
0
DIMENSION
5
258
100
AcDbEntity
8
Maße
6
ByLayer
62
256
370
-1
100
AcDbDimension
2
*D27
10
18
20
-6
30
0
11
41.75
21
-5.7375
31
0
70
32
71
5
72
0
3
Standard
53
0
210
0
220
0
230
1
100
AcDbAlignedDimension
13
65.5
23
-4
33
0
14
18
24
-4
34
0
100
AcDbRotatedDimension
0
DIMENSION
5
259
100
AcDbEntity
8
Maße
6
ByLayer
62
256
370
-1
100
AcDbDimension
2
*D28
10
10
20
-7
30
0
11
37.75
21
-6.7375
31
0
70
32
71
5
72
0
3
Standard
53
0
210
0
220
0
230
1
100
AcDbAlignedDimension
13
65.5
23
-4
33
0
14
10
24
-4
34
0
100
AcDbRotatedDimension
0
DIMENSION
5
25A
100
AcDbEntity
8
Maße
6
ByLayer
62
256
370
-1
100
AcDbDimension
2
*D29
10
10
20
-6
30
0
11
14
21
-5.7375
31
0
70
32
71
5
72
0
3
Standard
53
0
210
0
220
0
230
1
100
AcDbAlignedDimension
13
18
23
-4
33
0
14
10
24
-4
34
0
100
AcDbRotatedDimension
0
DIMENSION
5
25B
100
AcDbEntity
8
Maße
6
ByLayer
62
256
370
-1
100
AcDbDimension
2
*D30
10
2.5
20
-8
30
0
11
35.25
21
-7.7375
31
0
70
32
71
5
72
0
3
Standard
53
0
210
0
220
0
230
1
100
AcDbAlignedDimension
13
68
23
-4
33
0
14
2.5
24
-4
34
0
100
AcDbRotatedDimension
0
DIMENSION
5
25C
100
AcDbEntity
8
Maße
6
ByLayer
62
256
370
-1
100
AcDbDimension
2
*D31
10
2.5
20
-6
30
0
11
1.25
21
-5.7375
31
0
70
32
71
5
72
0
3
Standard
53
0
210
0
220
0
230
1
100
AcDbAlignedDimension
13
0
23
-4
33
0
14
2.5
24
-4
34
0
100
AcDbRotatedDimension
0
DIMENSION
5
25D
100
AcDbEntity
8
Maße
6
ByLayer
62
256
370
-1
100
AcDbDimension
2
*D32
10
1.5
20
-5
30
0
11
0.75
21
-4.7375
31
0
70
32
71
5
72
0
3
Standard
53
0
210
0
220
0
230
1
100
AcDbAlignedDimension
13
0
23
-4
33
0
14
1.5
24
-4
34
0
100
AcDbRotatedDimension
0
DIMENSION
5
25E
100
AcDbEntity
8
Maße
6
ByLayer
62
256
370
-1
100
AcDbDimension
2
*D33
10
2.5
20
-5
30
0
11
2
21
-4.7375
31
0
70
32
71
5
72
0
3
Standard
53
0
210
0
220
0
230
1
100
AcDbAlignedDimension
13
1.5
23
-4
33
0
14
2.5
24
-4
34
0
100
AcDbRotatedDimension
0
MTEXT
5
25F
100
AcDbEntity
8
Baumbereich
6
ByLayer
62
256
370
-1
100
AcDbMText
10
-5
20
34
30
0
40
0.4
41
1.24444444444
71
1
72
1
1
Baum
7
standard
210
0
220
0
230
1
50
0
73
2
44
1
0
MTEXT
5
260
100
AcDbEntity
8
Baumbereich
6
ByLayer
62
256
370
-1
100
AcDbMText
10
-6
20
25
30
0
40
0.4
41
1.24444444444
71
1
72
1
1
Baum
7
standard
210
0
220
0
230
1
50
0
73
2
44
1
0
MTEXT
5
261
100
AcDbEntity
8
Baumbereich
6
ByLayer
62
256
370
-1
100
AcDbMText
10
-5
20
15
30
0
40
0.4
41
1.24444444444
71
1
72
1
1
Baum
7
standard
210
0
220
0
230
1
50
0
73
2
44
1
0
MTEXT
5
262
100
AcDbEntity
8
Grund Böschung
6
ByLayer
62
256
370
-1
100
AcDbMText
10
-12
20
20
30
0
40
0.4
41
0.977777777778
71
1
72
1
1
Weg
7
standard
210
0
220
0
230
1
50
90
73
2
44
1
0
ELLIPSE
5
263
100
AcDbEntity
8
Baumbereich
6
ByLayer
62
256
370
-1
100
AcDbEllipse
10
2
20
50
30
0
11
-6.00504730023
21
0.477367935875
31
0
40
0.662841658384
41
0
42
6.28318530718
0
MTEXT
5
264
100
AcDbEntity
8
Baumbereich
6
ByLayer
62
256
370
-1
100
AcDbMText
10
2
20
50
30
0
40
0.4
41
0.977777983493
71
1
72
1
1
Mist
7
standard
210
0
220
0
230
1
50
0
73
2
44
1
0
CIRCLE
5
265
100
AcDbEntity
8
Grund
6
ByLayer
62
256
370
-1
100
AcDbCircle
10
11.9
20
9
40
0.1
0
CIRCLE
5
266
100
AcDbEntity
8
Grund
6
ByLayer
62
256
370
-1
100
AcDbCircle
10
12.1
20
9
40
0.1
0
ENDSEC
0
SECTION
2
OBJECTS
0
DICTIONARY
5
C
330
0
100
AcDbDictionary
281
1
3
ACAD_GROUP
350
D
0
DICTIONARY
5
D
330
C
100
AcDbDictionary
281
1
0
ENDSEC
0
EOF
